<?xml version="1.0" encoding="utf-8"?>
<!-- Generator: Adobe Illustrator 21.1.0, SVG Export Plug-In . SVG Version: 6.00 Build 0)  -->
<svg version="1.1" id="Calque_1" xmlns="http://www.w3.org/2000/svg" xmlns:xlink="http://www.w3.org/1999/xlink" x="0px" y="0px"
	 viewBox="0 0 1370 527" style="enable-background:new 0 0 1370 527;" xml:space="preserve">
<style type="text/css">
	.st0{fill:none;stroke:#666666;stroke-miterlimit:10;}
</style>
<polyline class="st0" points="639.9,177.9 653.5,174.4 692.5,135.4 710.5,91.4 727.5,91.4 762.5,16.4 779.5,31.4 812.5,123.4 
	833.5,141.4 850.6,193.7 "/>
<polyline class="st0" points="795.2,85.5 763,47.9 744,82.9 727,97.9 695.3,148.2 "/>
<polyline class="st0" points="710.9,153.5 728,119.9 783,64.9 818,123.9 852,181.9 870,192.9 888,209.9 900.7,236.4 "/>
<polyline class="st0" points="589,241.1 637,177.9 655,177.9 691,142.9 700.1,154.6 "/>
<polyline class="st0" points="730.5,163.7 746,136.9 763,123.9 781,101.9 842.5,191 "/>
<polyline class="st0" points="558.2,265.6 563,255.9 598,235.9 611,220.9 617,220.9 636,195.9 654,204.9 671,174.9 690,168.9 
	705.4,147.6 719.8,161.8 "/>
<polyline class="st0" points="947.6,288.6 962,294.9 984,287.9 1002.8,303 "/>
<polyline class="st0" points="744.5,185.6 764,173.9 781,175.9 800,184.9 814.1,172.5 835,201.9 854,203.9 873,232.9 909,246.9 
	930,264.9 937.5,281.5 "/>
<polyline class="st0" points="560.9,260.3 578.5,263 597,243.9 634,232.9 653,234.9 672,219.9 707,167.9 727.5,158.3 739.5,181.9 
	"/>
<polyline class="st0" points="562.1,267 615,253.9 651,257.9 671,242.9 690,196.9 726,170.9 747,187.9 761,185.9 794,208.9 
	831,209.9 874,229.9 891,250.9 910,254.9 928,274.9 953.9,293.1 "/>
<polyline class="st0" points="624.6,264.8 612,260.9 576,271.9 556,264.9 539,269.9 523.3,280.7 "/>
<polyline class="st0" points="1055,297.9 1035,306.9 969,298.9 930,283.9 910,260.9 893,264.9 874,250.9 836,198.9 800,201.9 
	780,208.9 761,201.9 744,189.9 725,193.9 708,203.9 689,223.9 670,260.9 644.4,271.3 "/>
<polyline class="st0" points="823.5,185.6 834,187.9 854,194.9 871,207.9 891,230.9 912,242.9 917.9,254.6 "/>
<polyline class="st0" points="734.4,171.4 768.1,150.6 791.1,158.7 794.6,182.4 "/>
<polyline class="st0" points="1217,361.9 1192,364.9 1144,359.9 1102,345.9 1084,328.9 1063,328.9 1046,333.9 1025,333.9 
	1014.9,309.4 998.8,317.2 "/>
<polyline class="st0" points="558.4,273.4 590.8,279.4 628.8,259.4 647.8,275.4 665.8,277.4 684.8,252.4 702.8,241.4 722.8,209.4 
	742.8,216.4 759.8,229.4 778.8,222.4 795.8,223.4 814.8,217.4 833.8,221.4 852.8,240.4 870.8,267.4 889.8,279.4 908.8,270.4 
	927.8,287.4 970.8,307.4 "/>
<polyline class="st0" points="789.5,258.5 818,244.9 856,279.9 875,283.9 895,294.9 914,291.9 931,303.9 951,303.9 963.9,310.3 "/>
<polyline class="st0" points="438.3,272.2 460,269.9 479,273.9 497,283.9 517,287.9 536,287.9 555,269.9 572,282.9 651,284.9 
	686,276.9 705,262.9 726,235.9 743,237.9 754.6,254.8 "/>
<polyline class="st0" points="846.2,302.9 817,268.9 772,251.9 743,256.9 704,287.9 667,292.9 647,308.9 630,303.9 611,303.9 
	590,301.9 572,292.9 554,287.9 535,306.9 514,316.9 476,306.9 440,321.9 419,310.9 404,287.9 383,273.9 363,249.9 346,236.9 
	316,248.9 298,236.9 "/>
<polyline class="st0" points="1011.2,329.2 992,310.9 972,306.9 953,314.9 931,314.9 913,297.9 877,293.9 868.1,305.2 "/>
<polyline class="st0" points="337.4,254.1 350.8,259.3 380,290.9 417,333.9 435,346.1 455,345.9 475,325.9 494,335.9 532,325.9 
	551,308.9 569,311.9 589,306.9 610,310.9 647,314.9 666,309.9 686,310.9 725,295.9 742,294.9 760,284.9 781,282.9 840,298.9 
	858,310.9 879,298.9 901,306.9 916,316.9 947.9,318.9 "/>
<polyline class="st0" points="329.7,258.3 338,268.9 360,290.9 398,322.9 421.4,350 455,348.9 473,335.9 511,341.9 549,322.9 
	568,332.9 587,328.9 608,334.9 666,314.9 684,325.9 700,330.9 723,329.9 743,323.9 760,306.9 781,301.9 820,306.9 839,323.9 
	859,323.9 896,311.9 915,328.9 974,310.9 1045.2,346 "/>
<polyline class="st0" points="1031.7,348.9 1013,342.9 994,328.9 956,322.9 915,336.9 896,325.9 878,329.9 859,327.9 841,334.9 
	820,333.9 799,319.9 762,329.9 742,345.9 704,345.9 684,352.9 663,336.9 626,334.9 588,358.9 568,353.9 548,339.9 530,348.9 
	510,346.9 488,350 415.1,356.9 298,236.9 279,239.9 227.3,220.6 202,248.9 182,251.9 "/>
<polyline class="st0" points="1100.8,373 1050,342.9 1041,349.1 "/>
<polyline class="st0" points="1194.7,382 1179.7,370.6 1136.3,382 "/>
<polyline class="st0" points="289,271.9 312,289.9 329,289.9 349,310.9 369,317.9 405,357.1 "/>
<polyline class="st0" points="365,347.9 407,364.9 432.9,361.2 450,369.9 488,360.9 526,369.9 547,371.9 565,380.9 583,380.9 
	605,364.9 626,364.9 644,369.9 664,357.9 684,372.9 722.7,371.5 760,360.9 784,341.9 802,335.9 820,347.9 844,350.9 879,350.9 
	899,342.9 917,355.9 979,355.9 1003,343.9 1024,358.9 1050,353.9 1096,375.9 1115,364.9 1132,380.9 1152,386.9 "/>
<polyline class="st0" points="417,368.9 466,382.9 488,368.9 526,376.9 567,395.9 602,391.9 622,395.9 662,387.9 685,389.9 
	702,378.9 747,366.9 763,371.9 801,357.9 820,367.9 841,364.9 860,367.9 882,357.9 918,374.9 937,367.9 "/>
<polyline class="st0" points="462,386.9 484,383.9 583,418.9 682,404.9 702,383.9 720,377.9 744.6,370 780,388.9 822,386.9 
	841,377.9 859,381.9 900,376.9 940,390.9 957,382.9 979,382.9 1000,372.9 1040,368.9 1079,389.9 1097,393.9 1119,388.9 1158,402.9 
	1178,403.9 1199,393.9 1218,395.9 1239,393.9 1257,405.9 "/>
<polyline class="st0" points="141.1,346.2 182,319.9 202,317.9 242,287.9 263,287.9 284,304.9 302,333.9 343,355.9 424,383.9 "/>
<path class="st0" d="M460,401.9l24,10h17l20,7c0,0,19,0,21,0s41,20,41,20l20-5l38-2l32-16l31-29l19-8l41,10l35,17h23l19-8l40,3
	l60,10"/>
<polyline class="st0" points="961,400.9 979,395.9 999,397.9 "/>
<polyline class="st0" points="1022,389.9 1044,389.9 1060,405.9 1079,411.9 1101,415.9 "/>
<polyline class="st0" points="1122,412.9 1141,410.9 1160,420.9 "/>
<polyline class="st0" points="1183,414.9 1201,404.9 1241,404.9 1262,410.9 1281,410.9 "/>
<polyline class="st0" points="398,393.9 380,391.9 340,362.9 319,368.9 296,350.9 259,306.9 240,316.9 219,342.9 198,337.9 
	179,352.9 158,355.9 139,344.9 119,349.9 99,361.9 77,367.9 26.9,430.2 10.6,445.8 -25.8,473.7 "/>
<polyline class="st0" points="644.5,441.1 661,426.9 680,413.9 700,392.9 720,388.9 740,388.9 771,403.9 802,416.9 823,414.9 
	841,406.9 904,429.9 924,429.9 943,436.9 1003,426.9 1023,413.9 1044,412.9 1061,424.9 1084,435.9 1124,427.9 1145,426.9 
	1163,431.9 1185,429.9 1207,422.9 1247,423.9 1261,427.9 1285,426.9 1305,414.9 1324,408.9 "/>
<path class="st0" d="M420,407.9l34,11l27,13l37,3l61,16c0,0,18-5,19-5s18,3,18,3h1"/>
<polyline class="st0" points="254,338.9 236,343.9 192,371.9 153,380.9 133,371.9 113,356.9 72,375.9 15,426.9 -3.7,456.6 "/>
<polyline class="st0" points="276,347.9 295,359.9 316,380.9 335,390.9 "/>
<line class="st0" x1="354" y1="398.9" x2="376" y2="406.9"/>
<polyline class="st0" points="398,414.9 417,428.9 437,434.9 476,450.9 497,446.9 536,457.9 558.1,458.1 "/>
<polyline class="st0" points="106,390.9 87,383.9 66,388.9 48,405.9 19,443.9 -1.7,465.3 -25.3,473.8 -43.8,475.6 "/>
<polyline class="st0" points="536.4,462.8 572,454.9 599,453.9 653,438.9 684,413.9 700,400.9 727,400.9 741,402.9 802,434.9 
	823,432.9 844,426.9 884,442.9 903,442.9 921,450.9 961,457.9 1030,445.9 1048,445.9 1088,457.9 1125,456.9 1157,441.9 1187,444.9 
	1220,431.9 1262.8,439.1 "/>
<polyline class="st0" points="127,395.9 149,398.9 175,393.9 188,393.9 250,365.9 272,365.9 311,393.9 330,402.9 352,418.9 
	394,437.9 434,445.9 455,455.9 473,455.9 503.5,463.3 "/>
<polyline class="st0" points="389,450.9 328,423.9 286,400.9 247,393.9 226,395.9 206,406.9 162,406.9 144,414.9 115,414.9 
	81,398.9 60,402.9 8,462.9 -7.3,475.7 -28.9,481 -49.2,482.2 -62.6,485.3 "/>
<polyline class="st0" points="412,454.9 430,454.9 476,466.9 522,460.9 553,464.9 605,454.9 659,441.9 700,410.9 718,414.9 
	741,413.9 776,431.9 801,450.9 843,450.9 884,462.9 928,469.9 947,466.9 966,472.9 "/>
<path class="st0" d="M1011,466.9c1-1,23-3,23-3l34,12l29,2l44-2l45-19c0,0,33-15,34-15s33,3,33,3l20-11l78-33"/>
<path class="st0" d="M1384,415.9h-22l-64,24l-60,33l-72,18l-70,11l-41-7l-61,7l-71-4l-44-12l-34-12l-42-3l-17-10c0,0-25-10-26-10
	s-22,2-22,2l-19-9l-21-2l-18,9l-44,9l-33,9h-24l-68,5l-10-4l-30,3l-64-6l-38-16l-45-10l-62-27l-34,13l-49-4h-23l-19,10l-40,2l-21-7
	l-21-3l-28,38l-14.8,20.9"/>
<polyline class="st0" points="629.1,461.6 649,450.9 682,434.9 716,431.9 760,434.9 799,457.9 824,462.9 843,460.9 885,481.9 
	902,479.9 924,486.9 984,486.9 "/>
<polyline class="st0" points="1029,479.9 1059,479.9 1092,490.9 1108,492.9 "/>
<polyline class="st0" points="1134,487.9 1174,479.9 1215,460.9 1255,450.9 1292,428.9 1379,397.9 "/>
<polyline class="st0" points="285,434.9 252,448.9 215,452.9 196,441.9 131,437.9 109,450.9 48,447.9 27.4,477.9 "/>
<polyline class="st0" points="316,447.9 363,470.9 405,470.9 434,480.9 "/>
<polyline class="st0" points="448,485.9 475,479.9 510,479.9 537,482.9 572,476.9 592,478.9 635,469.9 661,469.9 683,466.9 
	698,459.9 765,464.9 782,467.9 804,480.9 845,485.9 884,499.9 911,506.9 994,511.9 "/>
<line class="st0" x1="1052.2" y1="518.2" x2="1074" y2="517.9"/>
<polyline class="st0" points="1059,506.9 1116,509.9 1158,501.9 1196,492.9 "/>
<polyline class="st0" points="1222,490.9 1302,450.9 1326,438.9 "/>
<polyline class="st0" points="1346,438.9 1366,428.9 1388,424.9 1410,424.9 "/>
<polyline class="st0" points="155,452.9 138,452.9 111,457.9 65,457.9 42,464.9 22,482.9 -82.7,493.5 "/>
<path class="st0" d="M210,462.9c1,0,23,4,23,4l21-4l44,4l39,9l17,5h29l16,3l24,8l22,1l27-6h20l58,5l21-9l45-3l82-11l37,6l27-2l23,7
	l20,9l83,23l108,8"/>
<polyline class="st0" points="1097.1,523.6 1190,518.9 1232,508.9 1272,492.9 1314,480.9 1340,467.9 1378,457.9 "/>
<line class="st0" x1="1132" y1="515.9" x2="1165" y2="510.9"/>
<line class="st0" x1="1187" y1="507.9" x2="1204" y2="503.9"/>
<polyline class="st0" points="1228,500.9 1267,483.9 1292,477.9 1332,453.9 1370,441.9 "/>
<polyline class="st0" points="1396,436.9 1437,426.9 1456,432.9 1519,435.9 "/>
<polyline class="st0" points="125,461.9 102,461.9 76,471.9 37,477.9 16.3,490.1 -24.9,493 "/>
<line class="st0" x1="145" y1="463.9" x2="185" y2="479.9"/>
<polyline class="st0" points="209,482.9 230,475.9 273,473.9 310,486.9 352,493.9 "/>
<path class="st0" d="M423,500.9c2,0,20,2,20,2l39-6l68,3l39-13c0,0,42-4,43-4s23,1,23,1l43-8l35,8h35l33,13l64,16l51,8l103.9,6.7"/>
<polyline class="st0" points="1125.3,526.9 1192,523.9 1235,517.9 1297,496.9 1342,487.9 1382,472.9 "/>
<polyline class="st0" points="1406,470.9 1432,465.9 1467,455.9 "/>
<path class="st0" d="M1401,453.9c1,0,28-3,28-3l31-11h27l40,10"/>
<polyline class="st0" points="1491,453.9 1514,460.9 1532,462.9 "/>
<path class="st0" d="M181,491.9c0,0-56-21-57-21s-29,0-29,0l-21,5l-43,11l-20,9l-29.3,0.7"/>
<path class="st0" d="M204,492.9c1,0,62-8,62-8"/>
<path class="st0" d="M290,487.9c1,0,18,6,18,6"/>
<line class="st0" x1="358" y1="501.9" x2="373" y2="503.9"/>
<polyline class="st0" points="441,509.9 504,504.9 529,506.9 632,489.9 656,489.9 702,486.9 740,494.9 770,494.9 805,504.9 
	867,519.9 914,526.9 1033.9,532.5 "/>
<polyline class="st0" points="1145.1,532.2 1204,526.9 1244,520.9 1280,509.9 1354,496.9 1391,487.9 "/>
<line class="st0" x1="1410" y1="485.9" x2="1432" y2="480.9"/>
<path class="st0" d="M1454,478.9c2-1,25-6,25-6l18,1l41,6"/>
<path class="st0" d="M242,496.9l-42,3l-24-2c0,0-62-14-64-14s-45,2-45,2l-44,9c0,0-19,7-20,8l-14.9-1.9"/>
<polyline class="st0" points="264,498.9 295,497.9 324,504.9 390,514.9 "/>
<path class="st0" d="M418,516.9c1-1,82-4,82-4l22-1l64-11l24,3l56-4l31-4l33,5h37l38,13l56,8l49,8l59,5l115.8,3.8"/>
<polyline class="st0" points="1153,535.9 1211,529.9 1286,515.9 1371,506.9 1391,497.9 "/>
<line class="st0" x1="1483" y1="490.9" x2="1522" y2="493.9"/>
<polyline class="st0" points="1548,491.9 1589,486.9 1631,487.9 1671,486.9 "/>
<polyline class="st0" points="213,504.9 200,504.9 172,500.9 138,502.9 72,496.9 41,502.9 22,503.9 -2,508.9 -43.4,508.2 "/>
<polyline class="st0" points="258,503.9 284,503.9 346,517.9 382,521.9 423,521.9 497,517.9 563,513.9 612,512.9 661,510.9 
	698,506.9 742,511.9 773,511.9 832,524.9 883,529.9 921,534.9 1037.6,542.2 "/>
<polyline class="st0" points="255,510.9 210,511.9 169,504.9 125,510.9 58,504.9 13,508.9 -10,514.9 -54.5,516.2 "/>
<path class="st0" d="M274,512.9c1,0,47,5,47,5l42,7"/>
<polyline class="st0" points="73,511.9 8,515.9 -16,522.9 -60.5,523.1 -105.3,525.8 "/>
<path class="st0" d="M-22,528.9c1-1,22-8,22-8l67-3"/>
<polyline class="st0" points="-30,533.9 -8,527.9 58,524.9 "/>
<polyline class="st0" points="-36,539.9 -10,532.9 50,531.9 "/>
<polyline class="st0" points="90,518.9 113,521.9 137,519.9 "/>
<line class="st0" x1="133" y1="526.9" x2="158" y2="525.9"/>
<line class="st0" x1="174" y1="533.9" x2="191" y2="533.9"/>
<polyline class="st0" points="117,513.9 164,511.9 241,518.9 "/>
<line class="st0" x1="201" y1="522.9" x2="241" y2="525.9"/>
<line class="st0" x1="273" y1="517.9" x2="343" y2="527.9"/>
<line class="st0" x1="294" y1="526.9" x2="356" y2="530.9"/>
<line class="st0" x1="284" y1="529.9" x2="370" y2="534.9"/>
<line class="st0" x1="327" y1="536.9" x2="378" y2="539.9"/>
<line class="st0" x1="479" y1="523.9" x2="628" y2="519.9"/>
<line class="st0" x1="453" y1="529.9" x2="510" y2="527.9"/>
<polyline class="st0" points="694,517.9 774,521.9 812,527.9 882,533.9 "/>
<polyline class="st0" points="1168.4,538.2 1248,530.9 1309,521.9 "/>
<line class="st0" x1="1333" y1="519.9" x2="1355" y2="516.9"/>
<polyline class="st0" points="1377,517.9 1399,506.9 1441,503.9 1511,502.9 1554,503.9 1596,499.9 "/>
<line class="st0" x1="1208" y1="536.9" x2="1318" y2="527.9"/>
<polyline class="st0" points="1383,524.9 1404,517.9 1448,512.9 "/>
<polyline class="st0" points="1473,512.9 1497,514.9 1526,511.9 1559,514.9 1604,510.9 "/>
<line class="st0" x1="1388" y1="529.9" x2="1409" y2="524.9"/>
<line class="st0" x1="1392" y1="535.9" x2="1414" y2="530.9"/>
<path class="st0" d="M1427,523.9c1,0,29-1,29-1l55-1l49,1l56-4"/>
<line class="st0" x1="1225" y1="537.9" x2="1319" y2="532.9"/>
<path class="st0" d="M1395,541.9c1-1,27-6,27-6"/>
<polyline class="st0" points="174.4,315.4 187,296.9 208,286.9 247,265.9 268,269.9 287,284.9 327,326.9 "/>
<polyline class="st0" points="125.3,348.1 173,307.9 195,276.9 212,257.9 233,259.9 251.8,266.9 "/>
<path class="st0" d="M86.9,365.1c1,0,4.1-4.2,4.1-4.2l17.5-4.6"/>
<polyline class="st0" points="96.2,359.5 117,342.9 157,288.9 196,273.9 217,239.9 235,236.9 254,252.9 276,264.9 313,264.9 
	334,283.9 336.3,297.7 "/>
<polyline class="st0" points="81,366.9 102,349.9 121,319.9 143,266.9 163,239.9 205,212.9 243.6,210.1 251.4,229.4 "/>
<path class="st0" d="M218.9,212c1,0,27.2-12.8,27.2-12.8l39.4,39.4"/>
<polyline class="st0" points="329.1,243.6 350,225.9 438.3,272.2 "/>
<polyline class="st0" points="450,271 463,264.9 483,268.9 500,278.9 520,278.9 536,287.9 "/>
<polyline class="st0" points="552.3,266 566,242.9 584,237.9 602,214.9 617,203.9 "/>
<polyline class="st0" points="544.6,268.2 551,257.9 558,256.3 "/>
<polyline class="st0" points="897,228.7 902,222.9 935,234.9 954,249.9 988,252.9 "/>
<path class="st0" d="M902.2,237.2l3.8-1.3l14,1c0,0,19,5,19,6s16,12,16,12l19.2-2.8l11.8,3.2"/>
<path class="st0" d="M940,264.9c1,0,22,10,22,10l19,1l24,4l31,2l25,21l12,4h19l18-22l17,4h22l17,3l16,8l45,54.3"/>
<path class="st0" d="M953,263.9l8-4l18-3c0,0,16,10,16,9s21,5,21,5l15.2,10.7"/>
<polyline class="st0" points="992.7,348.9 957,338.9 921.7,355.9 "/>
<polyline class="st0" points="1050,353.9 1037,346.9 1017.4,354.1 "/>
<path class="st0" d="M1100.6,392.9l16.4-18c0,0,16,12,17,12s22,8,22,8s18-11,19-11s29-3,29-3"/>
<polyline class="st0" points="983,259.4 994,245.9 1013,241.9 1039.5,275.8 "/>
<polyline class="st0" points="996.8,259.3 1014,252.9 1032,274.9 1049,276.9 1069,283.9 1088,284.9 1097,289 "/>
<polyline class="st0" points="1023,254.6 1044,269.9 1063,273.9 1078,264.9 1094.7,274 "/>
<polyline class="st0" points="1067.1,283 1104,270.9 1128,278.9 1135.1,277.4 "/>
<polyline class="st0" points="1130,284.9 1141,268.9 1160,275.9 1162.5,281.6 "/>
<polyline class="st0" points="1142,285.9 1166,280.9 1183,295.9 1207,330 "/>
<polyline class="st0" points="1092.5,315.1 1099,310.9 1116,322.9 1135,321.9 1156,328.9 1174,329.9 1192,347.9 "/>
<path class="st0" d="M1031.2,333.7l12.8-10.8l19-5l20,2l17,15l38,14l20-5c0,0,36,16,36,15s20-4,20-4l20-1l22.2,8.6"/>
<polyline class="st0" points="1220,367.9 1240,369.9 1293,345.9 1313,344.9 1342.8,381.1 "/>
<path class="st0" d="M1204,380.9c2,0,38-1,38-1l19-11h40l55,16l46,12"/>
<polyline class="st0" points="1251,387.9 1286,394.9 1309,393.9 "/>
<path class="st0" d="M1287,384.9c0,0,36-1,37-1s11,3,11,3"/>
<polyline class="st0" points="1251,396.9 1274,399.9 1288,400.9 "/>
<polyline class="st0" points="1317.9,398 1336.9,388 1346.3,386.5 "/>
<line class="st0" x1="1322" y1="402.9" x2="1346.6" y2="390.5"/>
<polyline class="st0" points="1327,406.9 1353,390.9 1361,388.9 "/>
<path class="st0" d="M1380,400.9c2,0,12,3,12,3l18,9"/>
<polyline class="st0" points="1375,405.9 1380,405.9 1398,415.9 1422,421.9 "/>
<path class="st0" d="M1432,420.9c1-1,18,2,18,2l27,2l49,3l18,5"/>
<polyline class="st0" points="1329.1,364.5 1344,365.9 1358,360.9 1377,366.9 1391,381 "/>
<polyline class="st0" points="1334.3,370.7 1348,374.9 1380,376.9 1399,383.9 1404,382.9 1418,392.9 "/>
<polyline class="st0" points="-37.9,495.6 -75.2,497.3 -115.2,502.7 "/>
<polyline class="st0" points="-42.2,499.5 -83.9,501.4 -104.8,505.1 "/>
<polyline class="st0" points="-75.7,515.2 -107.1,517.9 -129.4,525.8 "/>
<polyline class="st0" points="-68.4,508.2 -113.2,510.9 -139.8,518.7 "/>
<polyline class="st0" points="-48,529.6 -102.6,530.8 -156.1,530.1 "/>
<line class="st0" x1="-36.1" y1="539.3" x2="-99.5" y2="540"/>
</svg>
