<?xml version="1.0" encoding="utf-8"?>
<!-- Generator: Adobe Illustrator 21.1.0, SVG Export Plug-In . SVG Version: 6.00 Build 0)  -->
<svg version="1.1" id="Calque_1" xmlns="http://www.w3.org/2000/svg" xmlns:xlink="http://www.w3.org/1999/xlink" x="0px" y="0px"
	 viewBox="0 0 1710.5 530.9" style="enable-background:new 0 0 1710.5 530.9;" xml:space="preserve">
<style type="text/css">
	.st0{fill:url(#SVGID_1_);}
	.st1{fill:url(#SVGID_2_);}
	.st2{fill:url(#SVGID_3_);}
	.st3{fill:url(#SVGID_4_);}
	.st4{fill:url(#SVGID_5_);}
	.st5{fill:url(#SVGID_6_);}
	.st6{fill:url(#SVGID_7_);}
	.st7{fill:url(#SVGID_8_);}
	.st8{fill:url(#SVGID_9_);}
	.st9{fill:url(#SVGID_10_);}
	.st10{fill:url(#SVGID_11_);}
	.st11{fill:url(#SVGID_12_);}
	.st12{fill:url(#SVGID_13_);}
	.st13{fill:url(#SVGID_14_);}
	.st14{fill:url(#SVGID_15_);}
	.st15{fill:url(#SVGID_16_);}
	.st16{fill:url(#SVGID_17_);}
	.st17{fill:url(#SVGID_18_);}
	.st18{fill:url(#SVGID_19_);}
	.st19{fill:url(#SVGID_20_);}
	.st20{fill:url(#SVGID_21_);}
	.st21{fill:url(#SVGID_22_);}
	.st22{fill:url(#SVGID_23_);}
	.st23{fill:url(#SVGID_24_);}
	.st24{fill:url(#SVGID_25_);}
	.st25{fill:url(#SVGID_26_);}
	.st26{fill:url(#SVGID_27_);stroke:#808080;stroke-linecap:round;stroke-linejoin:round;stroke-miterlimit:10;}
	.st27{fill:url(#SVGID_28_);}
	.st28{fill:url(#SVGID_29_);}
	.st29{fill:url(#SVGID_30_);}
	.st30{fill:url(#SVGID_31_);}
	.st31{fill:url(#SVGID_32_);}
	.st32{fill:url(#SVGID_33_);}
	.st33{fill:url(#SVGID_34_);}
	.st34{fill:url(#SVGID_35_);}
	.st35{fill:url(#SVGID_36_);}
	.st36{fill:url(#SVGID_37_);}
	.st37{fill:url(#SVGID_38_);}
	.st38{fill:url(#SVGID_39_);}
	.st39{fill:url(#SVGID_40_);}
	.st40{fill:url(#SVGID_41_);}
	.st41{fill:url(#SVGID_42_);}
	.st42{fill:url(#SVGID_43_);}
	.st43{fill:url(#SVGID_44_);}
	.st44{fill:url(#SVGID_45_);}
	.st45{fill:url(#SVGID_46_);}
	.st46{fill:url(#SVGID_47_);}
	.st47{fill:url(#SVGID_48_);}
	.st48{fill:url(#SVGID_49_);}
	.st49{fill:url(#SVGID_50_);}
	.st50{fill:url(#SVGID_51_);}
	.st51{fill:url(#SVGID_52_);}
	.st52{fill:url(#SVGID_53_);}
	.st53{fill:url(#SVGID_54_);}
	.st54{fill:url(#SVGID_55_);}
	.st55{fill:url(#SVGID_56_);}
	.st56{fill:url(#SVGID_57_);}
	.st57{fill:url(#SVGID_58_);}
	.st58{fill:url(#SVGID_59_);}
	.st59{fill:url(#SVGID_60_);}
	.st60{fill:url(#SVGID_61_);}
	.st61{fill:url(#SVGID_62_);}
	.st62{fill:url(#SVGID_63_);}
	.st63{fill:url(#SVGID_64_);}
	.st64{fill:url(#SVGID_65_);}
	.st65{fill:url(#SVGID_66_);}
	.st66{fill:url(#SVGID_67_);}
	.st67{fill:url(#SVGID_68_);}
	.st68{fill:url(#SVGID_69_);}
	.st69{fill:url(#SVGID_70_);}
	.st70{fill:url(#SVGID_71_);}
	.st71{fill:url(#SVGID_72_);}
	.st72{fill:url(#SVGID_73_);}
	.st73{fill:url(#SVGID_74_);}
	.st74{fill:url(#SVGID_75_);}
	.st75{fill:url(#SVGID_76_);}
	.st76{fill:url(#SVGID_77_);}
	.st77{fill:url(#SVGID_78_);}
	.st78{fill:url(#SVGID_79_);}
	.st79{fill:url(#SVGID_80_);}
	.st80{fill:url(#SVGID_81_);}
	.st81{fill:url(#SVGID_82_);}
	.st82{fill:url(#SVGID_83_);}
	.st83{fill:url(#SVGID_84_);}
	.st84{fill:url(#SVGID_85_);}
	.st85{fill:url(#SVGID_86_);}
	.st86{fill:url(#SVGID_87_);}
	.st87{fill:url(#SVGID_88_);}
	.st88{fill:url(#SVGID_89_);}
	.st89{fill:url(#SVGID_90_);}
	.st90{fill:url(#SVGID_91_);}
	.st91{fill:url(#SVGID_92_);}
	.st92{fill:url(#SVGID_93_);}
	.st93{fill:url(#SVGID_94_);}
	.st94{fill:url(#SVGID_95_);}
	.st95{fill:url(#SVGID_96_);}
	.st96{fill:url(#SVGID_97_);}
	.st97{fill:url(#SVGID_98_);}
	.st98{fill:url(#SVGID_99_);}
	.st99{fill:url(#SVGID_100_);}
	.st100{fill:url(#SVGID_101_);}
	.st101{fill:url(#SVGID_102_);}
	.st102{fill:url(#SVGID_103_);}
	.st103{fill:url(#SVGID_104_);}
	.st104{fill:url(#SVGID_105_);}
	.st105{fill:url(#SVGID_106_);}
	.st106{fill:url(#SVGID_107_);}
	.st107{fill:url(#SVGID_108_);}
	.st108{fill:url(#SVGID_109_);}
	.st109{fill:url(#SVGID_110_);}
	.st110{fill:url(#SVGID_111_);}
	.st111{fill:url(#SVGID_112_);}
	.st112{fill:url(#SVGID_113_);}
	.st113{fill:url(#SVGID_114_);}
	.st114{fill:url(#SVGID_115_);}
	.st115{fill:url(#SVGID_116_);}
	.st116{fill:url(#SVGID_117_);}
	.st117{fill:url(#SVGID_118_);}
	.st118{fill:url(#SVGID_119_);}
	.st119{fill:url(#SVGID_120_);}
	.st120{fill:url(#SVGID_121_);}
	.st121{fill:url(#SVGID_122_);}
	.st122{fill:url(#SVGID_123_);}
	.st123{fill:url(#SVGID_124_);}
	.st124{fill:url(#SVGID_125_);}
	.st125{fill:url(#SVGID_126_);}
	.st126{fill:url(#SVGID_127_);}
	.st127{fill:url(#SVGID_128_);}
	.st128{fill:url(#SVGID_129_);}
	.st129{fill:url(#SVGID_130_);}
	.st130{fill:url(#SVGID_131_);stroke:#808080;stroke-linecap:round;stroke-linejoin:round;stroke-miterlimit:10;}
	.st131{fill:url(#SVGID_132_);}
	.st132{fill:url(#SVGID_133_);}
	.st133{fill:url(#SVGID_134_);}
	.st134{fill:url(#SVGID_135_);}
	.st135{fill:url(#SVGID_136_);}
	.st136{fill:url(#SVGID_137_);}
	.st137{fill:url(#SVGID_138_);}
	.st138{fill:url(#SVGID_139_);}
	.st139{fill:url(#SVGID_140_);}
	.st140{fill:url(#SVGID_141_);}
	.st141{fill:url(#SVGID_142_);}
	.st142{fill:url(#SVGID_143_);}
	.st143{fill:url(#SVGID_144_);}
	.st144{fill:url(#SVGID_145_);}
	.st145{fill:url(#SVGID_146_);}
	.st146{fill:url(#SVGID_147_);}
	.st147{fill:url(#SVGID_148_);}
	.st148{fill:url(#SVGID_149_);}
	.st149{fill:url(#SVGID_150_);}
	.st150{fill:url(#SVGID_151_);}
	.st151{fill:url(#SVGID_152_);}
	.st152{fill:url(#SVGID_153_);}
	.st153{fill:url(#SVGID_154_);}
	.st154{fill:url(#SVGID_155_);}
</style>
<polygon points="6.1,534 6.3,530.7 32.1,518.9 42.8,515.6 56.8,502.9 70.6,500.8 89.8,493.5 96.3,492.6 128.8,475.6 147.2,473.8 
	169.4,456 187.5,426.6 239.7,380.1 249.6,367.5 254.3,366.3 274.5,349.9 316.1,289 334.1,278.8 376,227.6 416.1,210.1 423.1,227.7 
	425.1,230.2 450.5,239.6 470.1,237.1 487.8,248.4 503.1,242.9 522.5,225.9 610.1,272 623.7,270.3 635.5,264.9 655.5,268.9 
	671.9,278.5 691.6,278.9 695.9,280.7 711.5,269.9 717.7,268.3 723.5,257.9 729.9,256.5 738.5,242.9 756.5,237.9 775.1,214.7 
	789.3,204.4 809.5,177.9 815,177.4 826,174.4 865.2,134.8 883,91.4 900,91.4 935,16.8 952,31.4 980.9,112 990.6,124.3 995.4,132.7 
	1006,141.4 1013,162.4 1024.5,181.9 1042.5,192.9 1060.5,209.9 1069.5,228.2 1074.5,223.2 1079,224.7 1107.4,235.2 1126.3,250.1 
	1160.3,253.2 1166.7,246 1185.6,242.3 1197,256.2 1216.6,270 1235.7,273.9 1250.3,265 1267.1,273.8 1276.5,270.9 1300.5,278.9 
	1307.3,277.4 1313.5,268.9 1332.3,275.8 1334.7,281.5 1338.6,280.8 1355.5,295.9 1371,317.9 1399.2,354.3 1406.8,354.2 
	1428.6,362.5 1465.6,346 1485.5,345.1 1502,365.1 1504.6,364.6 1516.5,365.7 1530.5,360.5 1549.6,366.7 1563.2,380.4 1571.2,383.7 
	1576.5,382.7 1590.7,392.9 1607.6,420.7 1697.5,428.2 1721.8,434.3 1716.2,544.7 "/>
<linearGradient id="SVGID_1_" gradientUnits="userSpaceOnUse" x1="917.7986" y1="60.9284" x2="917.7986" y2="594.3746">
	<stop  offset="0" style="stop-color:#FFFFFF"/>
	<stop  offset="1" style="stop-color:#000000"/>
</linearGradient>
<path class="st0" d="M1023.2,194.2c-0.2,0-0.4-0.1-0.5-0.3l-17.1-52.1l-20.9-17.9c-0.1-0.1-0.1-0.1-0.1-0.2l-33-91.9l-16.4-14.5
	l-34.7,74.4c-0.1,0.2-0.3,0.3-0.5,0.3h-16.7l-17.9,43.7c0,0.1-0.1,0.1-0.1,0.2l-39,39c-0.1,0.1-0.1,0.1-0.2,0.1l-13.6,3.5
	c-0.3,0.1-0.5-0.1-0.6-0.4c-0.1-0.3,0.1-0.5,0.4-0.6l13.5-3.5l38.8-38.8l18-43.9c0.1-0.2,0.3-0.3,0.5-0.3h16.7l34.9-74.7
	c0.1-0.1,0.2-0.2,0.4-0.3c0.2,0,0.3,0,0.4,0.1l17,15c0.1,0.1,0.1,0.1,0.1,0.2l33,91.9l20.9,17.9c0.1,0.1,0.1,0.1,0.2,0.2l17.1,52.3
	c0.1,0.3-0.1,0.5-0.3,0.6C1023.3,194.2,1023.2,194.2,1023.2,194.2z"/>
<linearGradient id="SVGID_2_" gradientUnits="userSpaceOnUse" x1="918.1577" y1="60.9284" x2="918.1577" y2="594.3746">
	<stop  offset="0" style="stop-color:#FFFFFF"/>
	<stop  offset="1" style="stop-color:#000000"/>
</linearGradient>
<path class="st1" d="M867.8,148.7c-0.1,0-0.2,0-0.3-0.1c-0.2-0.1-0.3-0.5-0.2-0.7l31.7-50.3c0,0,0.1-0.1,0.1-0.1l17-15l27.2-37.9
	c0.1-0.1,0.3-0.2,0.4-0.2c0.2,0,0.3,0.1,0.4,0.3L969,95.4c0.1,0.2,0,0.5-0.2,0.7c-0.2,0.1-0.5,0-0.7-0.2l-24.4-49.9l-26.8,37.2
	c0,0,0,0.1-0.1,0.1l-16.9,15l-31.7,50.3C868.1,148.6,868,148.7,867.8,148.7z"/>
<linearGradient id="SVGID_3_" gradientUnits="userSpaceOnUse" x1="978.3741" y1="60.9284" x2="978.3741" y2="594.3746">
	<stop  offset="0" style="stop-color:#FFFFFF"/>
	<stop  offset="1" style="stop-color:#000000"/>
</linearGradient>
<path class="st2" d="M1073.3,236.9c-0.2,0-0.4-0.1-0.5-0.3l-12.7-26.5l-17.9-16.9l-18-11c-0.1,0-0.1-0.1-0.2-0.2l-34-58l-40.6-51.7
	l-48.6,47.8l-17,33.6c-0.1,0.2-0.4,0.3-0.7,0.2c-0.2-0.1-0.3-0.4-0.2-0.7l17.1-33.7c0,0,0.1-0.1,0.1-0.1l49-48.2
	c0.1-0.1,0.2-0.2,0.4-0.1c0.1,0,0.3,0.1,0.4,0.2l41,52.2l34,57.9l17.9,10.9c0,0,0.1,0,0.1,0.1l18,17c0,0,0.1,0.1,0.1,0.1l12.7,26.5
	c0.1,0.2,0,0.5-0.2,0.7C1073.4,236.9,1073.3,236.9,1073.3,236.9z"/>
<linearGradient id="SVGID_4_" gradientUnits="userSpaceOnUse" x1="817.0576" y1="60.9284" x2="817.0576" y2="594.3746">
	<stop  offset="0" style="stop-color:#FFFFFF"/>
	<stop  offset="1" style="stop-color:#000000"/>
</linearGradient>
<path class="st3" d="M761.5,241.6c-0.1,0-0.2,0-0.3-0.1c-0.2-0.2-0.3-0.5-0.1-0.7l48-63.2c0.1-0.1,0.2-0.2,0.4-0.2h17.8l35.9-34.9
	c0.1-0.1,0.2-0.2,0.4-0.1c0.1,0,0.3,0.1,0.4,0.2l9.1,11.8c0.2,0.2,0.1,0.5-0.1,0.7c-0.2,0.2-0.5,0.1-0.7-0.1l-8.7-11.3l-35.6,34.6
	c-0.1,0.1-0.2,0.1-0.3,0.1h-17.8l-47.9,63C761.8,241.5,761.7,241.6,761.5,241.6z"/>
<linearGradient id="SVGID_5_" gradientUnits="userSpaceOnUse" x1="959.0359" y1="60.9284" x2="959.0359" y2="594.3746">
	<stop  offset="0" style="stop-color:#FFFFFF"/>
	<stop  offset="1" style="stop-color:#000000"/>
</linearGradient>
<path class="st4" d="M1015.1,191.5c-0.2,0-0.3-0.1-0.4-0.2l-61.2-88.5l-17.6,21.5c0,0-0.1,0.1-0.1,0.1l-16.9,12.9l-15.5,26.7
	c-0.1,0.2-0.4,0.3-0.7,0.2c-0.2-0.1-0.3-0.4-0.2-0.7l15.5-26.8c0-0.1,0.1-0.1,0.1-0.1l17-13l18-22c0.1-0.1,0.2-0.2,0.4-0.2
	c0.2,0,0.3,0.1,0.4,0.2l61.5,89.1c0.2,0.2,0.1,0.5-0.1,0.7C1015.3,191.4,1015.2,191.5,1015.1,191.5z"/>
<linearGradient id="SVGID_6_" gradientUnits="userSpaceOnUse" x1="811.5042" y1="60.9284" x2="811.5042" y2="594.3746">
	<stop  offset="0" style="stop-color:#FFFFFF"/>
	<stop  offset="1" style="stop-color:#000000"/>
</linearGradient>
<path class="st5" d="M730.7,266.1c-0.1,0-0.2,0-0.2-0.1c-0.2-0.1-0.3-0.4-0.2-0.7l4.8-9.7c0-0.1,0.1-0.2,0.2-0.2l34.9-20l12.9-14.9
	c0.1-0.1,0.2-0.2,0.4-0.2h5.8l18.9-24.8c0.1-0.2,0.4-0.3,0.6-0.1l17.6,8.8l16.8-29.6c0.1-0.1,0.2-0.2,0.3-0.2l18.8-6l15.3-21.1
	c0.1-0.1,0.2-0.2,0.4-0.2c0.1,0,0.3,0,0.4,0.1l14.4,14.2c0.2,0.2,0.2,0.5,0,0.7c-0.2,0.2-0.5,0.2-0.7,0l-14-13.8l-15.1,20.8
	c-0.1,0.1-0.2,0.2-0.3,0.2l-18.8,5.9L827,205.1c-0.1,0.2-0.4,0.3-0.7,0.2l-17.6-8.8l-18.7,24.7c-0.1,0.1-0.2,0.2-0.4,0.2h-5.8
	l-12.9,14.8c0,0-0.1,0.1-0.1,0.1l-34.9,19.9l-4.8,9.5C731,266,730.9,266.1,730.7,266.1z"/>
<linearGradient id="SVGID_7_" gradientUnits="userSpaceOnUse" x1="1147.7251" y1="60.9284" x2="1147.7251" y2="594.3746">
	<stop  offset="0" style="stop-color:#FFFFFF"/>
	<stop  offset="1" style="stop-color:#000000"/>
</linearGradient>
<path class="st6" d="M1175.3,303.5c-0.1,0-0.2,0-0.3-0.1l-18.6-14.9l-21.7,6.9c-0.1,0-0.2,0-0.4,0l-14.4-6.3
	c-0.3-0.1-0.4-0.4-0.3-0.7c0.1-0.3,0.4-0.4,0.7-0.3l14.2,6.2l21.8-6.9c0.2-0.1,0.3,0,0.5,0.1l18.8,15.1c0.2,0.2,0.2,0.5,0.1,0.7
	C1175.6,303.4,1175.5,303.5,1175.3,303.5z"/>
<linearGradient id="SVGID_8_" gradientUnits="userSpaceOnUse" x1="1013.5016" y1="60.9284" x2="1013.5016" y2="594.3746">
	<stop  offset="0" style="stop-color:#FFFFFF"/>
	<stop  offset="1" style="stop-color:#000000"/>
</linearGradient>
<path class="st7" d="M1110,282c-0.2,0-0.4-0.1-0.5-0.3l-7.4-16.5l-20.9-17.9l-35.9-14c-0.1,0-0.2-0.1-0.2-0.2l-18.9-28.8l-18.8-2
	c-0.1,0-0.3-0.1-0.4-0.2l-20.5-29l-13.7,12c-0.1,0.1-0.4,0.2-0.5,0.1l-18.9-9l-16.7-2L917.3,186c-0.2,0.1-0.5,0.1-0.7-0.2
	c-0.1-0.2-0.1-0.5,0.2-0.7l19.5-11.7c0.1-0.1,0.2-0.1,0.3-0.1l17,2c0.1,0,0.1,0,0.2,0l18.7,8.9l13.9-12.2c0.1-0.1,0.2-0.1,0.4-0.1
	c0.1,0,0.3,0.1,0.3,0.2l20.7,29.2l18.8,2c0.1,0,0.3,0.1,0.4,0.2l18.9,28.9l35.9,13.9c0.1,0,0.1,0,0.1,0.1l21,18
	c0.1,0,0.1,0.1,0.1,0.2l7.5,16.6c0.1,0.3,0,0.5-0.3,0.7C1110.1,282,1110.1,282,1110,282z"/>
<linearGradient id="SVGID_9_" gradientUnits="userSpaceOnUse" x1="822.7123" y1="60.9284" x2="822.7123" y2="594.3746">
	<stop  offset="0" style="stop-color:#FFFFFF"/>
	<stop  offset="1" style="stop-color:#000000"/>
</linearGradient>
<path class="st8" d="M751,263.5C751,263.5,750.9,263.5,751,263.5l-17.7-2.7c-0.3,0-0.5-0.3-0.4-0.6c0-0.3,0.3-0.5,0.6-0.4l17.4,2.7
	l18.4-18.9c0.1-0.1,0.1-0.1,0.2-0.1l37-11c0.1,0,0.1,0,0.2,0l18.8,2l18.8-14.8l35-51.9c0.1-0.1,0.1-0.1,0.2-0.2l20.5-9.6
	c0.2-0.1,0.5,0,0.7,0.2l12,23.6c0.1,0.2,0,0.5-0.2,0.7c-0.2,0.1-0.5,0-0.7-0.2L899.8,159l-20,9.3l-34.9,51.9c0,0-0.1,0.1-0.1,0.1
	l-19,15c-0.1,0.1-0.2,0.1-0.4,0.1l-18.9-2l-36.8,10.9l-18.4,19C751.3,263.4,751.1,263.5,751,263.5z"/>
<linearGradient id="SVGID_10_" gradientUnits="userSpaceOnUse" x1="930.5361" y1="60.9284" x2="930.5361" y2="594.3746">
	<stop  offset="0" style="stop-color:#FFFFFF"/>
	<stop  offset="1" style="stop-color:#000000"/>
</linearGradient>
<path class="st9" d="M1126.5,293.6c-0.1,0-0.2,0-0.3-0.1l-25.9-18.3c0,0-0.1,0-0.1-0.1l-17.9-19.9l-18.8-4c-0.1,0-0.2-0.1-0.3-0.2
	l-16.9-20.9l-42.8-19.9l-36.9-1c-0.1,0-0.2,0-0.3-0.1l-32.8-22.9l-13.8,2c-0.1,0-0.3,0-0.4-0.1l-20.7-16.8l-35.6,25.7L844,243.1
	c0,0.1-0.1,0.2-0.2,0.2l-20,15c-0.1,0.1-0.2,0.1-0.4,0.1l-35.9-4l-52.8,13.1c-0.3,0.1-0.5-0.1-0.6-0.4c-0.1-0.3,0.1-0.5,0.4-0.6
	l52.9-13.2c0.1,0,0.1,0,0.2,0l35.8,4l19.7-14.8l18.9-45.9c0-0.1,0.1-0.2,0.2-0.2l36-26c0.2-0.1,0.4-0.1,0.6,0l20.8,16.9l13.8-2
	c0.1,0,0.3,0,0.4,0.1l32.9,22.9l36.9,1c0.1,0,0.1,0,0.2,0l43,20c0.1,0,0.1,0.1,0.2,0.1l16.9,20.9l18.8,4c0.1,0,0.2,0.1,0.3,0.2
	l18,20l25.9,18.2c0.2,0.2,0.3,0.5,0.1,0.7C1126.8,293.6,1126.6,293.6,1126.5,293.6z"/>
<linearGradient id="SVGID_11_" gradientUnits="userSpaceOnUse" x1="744.557" y1="60.9284" x2="744.557" y2="594.3746">
	<stop  offset="0" style="stop-color:#FFFFFF"/>
	<stop  offset="1" style="stop-color:#000000"/>
</linearGradient>
<path class="st10" d="M695.9,281.2c-0.2,0-0.3-0.1-0.4-0.2c-0.2-0.2-0.1-0.5,0.1-0.7l15.7-10.8c0,0,0.1-0.1,0.1-0.1l17-5
	c0.1,0,0.2,0,0.3,0l19.8,6.9l35.8-11c0.1,0,0.2,0,0.3,0l8.7,2.7c0.3,0.1,0.4,0.4,0.3,0.6c-0.1,0.3-0.4,0.4-0.6,0.3l-8.6-2.7
	l-35.9,11c-0.1,0-0.2,0-0.3,0l-19.8-6.9l-16.8,4.9l-15.6,10.8C696.1,281.2,696,281.2,695.9,281.2z"/>
<linearGradient id="SVGID_12_" gradientUnits="userSpaceOnUse" x1="1021.7151" y1="60.9284" x2="1021.7151" y2="594.3746">
	<stop  offset="0" style="stop-color:#FFFFFF"/>
	<stop  offset="1" style="stop-color:#000000"/>
</linearGradient>
<path class="st11" d="M1207.5,307.4C1207.5,307.4,1207.5,307.4,1207.5,307.4l-66.1-8c0,0-0.1,0-0.1,0l-39-15c-0.1,0-0.1-0.1-0.2-0.1
	l-19.8-22.8l-16.7,3.9c-0.1,0-0.3,0-0.4-0.1l-19-14c0,0-0.1-0.1-0.1-0.1l-37.8-51.8l-35.7,3l-19.9,7c-0.1,0-0.2,0-0.3,0l-19-7
	c0,0-0.1,0-0.1-0.1l-16.8-11.9l-18.7,3.9l-16.9,9.9l-18.9,19.9l-19,36.9c-0.1,0.1-0.1,0.2-0.3,0.2l-26.6,10.8
	c-0.3,0.1-0.5,0-0.7-0.3c-0.1-0.3,0-0.5,0.3-0.7l26.4-10.8l18.9-36.8c0,0,0-0.1,0.1-0.1l19-20c0,0,0.1-0.1,0.1-0.1l17-10
	c0,0,0.1,0,0.2-0.1l19-4c0.1,0,0.3,0,0.4,0.1l16.9,12l18.8,6.9l19.8-6.9c0,0,0.1,0,0.1,0l36-3c0.2,0,0.3,0.1,0.4,0.2l38,51.9
	l18.8,13.8l16.8-3.9c0.2,0,0.4,0,0.5,0.2l19.9,22.9l38.8,14.9l65.8,8l19.9-8.9c0.2-0.1,0.5,0,0.7,0.3c0.1,0.3,0,0.5-0.3,0.7l-20,9
	C1207.7,307.4,1207.6,307.4,1207.5,307.4z"/>
<linearGradient id="SVGID_13_" gradientUnits="userSpaceOnUse" x1="1043.2522" y1="60.9284" x2="1043.2522" y2="594.3746">
	<stop  offset="0" style="stop-color:#FFFFFF"/>
	<stop  offset="1" style="stop-color:#000000"/>
</linearGradient>
<path class="st12" d="M1090.5,255.1c-0.2,0-0.4-0.1-0.4-0.3l-5.9-11.6l-20.9-11.9c0,0-0.1-0.1-0.1-0.1l-20-23l-16.9-12.9l-19.9-7
	l-10.4-2.3c-0.3-0.1-0.4-0.3-0.4-0.6c0.1-0.3,0.3-0.4,0.6-0.4l10.5,2.3l20.1,7c0,0,0.1,0,0.1,0.1l17,13c0,0,0.1,0,0.1,0.1l19.9,22.9
	l20.9,12c0.1,0,0.2,0.1,0.2,0.2l5.9,11.8c0.1,0.2,0,0.5-0.2,0.7C1090.6,255.1,1090.5,255.1,1090.5,255.1z"/>
<linearGradient id="SVGID_14_" gradientUnits="userSpaceOnUse" x1="937.0193" y1="60.9284" x2="937.0193" y2="594.3746">
	<stop  offset="0" style="stop-color:#FFFFFF"/>
	<stop  offset="1" style="stop-color:#000000"/>
</linearGradient>
<path class="st13" d="M967.2,182.9c-0.2,0-0.5-0.2-0.5-0.4l-3.5-23.4l-22.5-7.9l-33.5,20.7c-0.2,0.1-0.5,0.1-0.7-0.2
	c-0.1-0.2-0.1-0.5,0.2-0.7l33.7-20.8c0.1-0.1,0.3-0.1,0.4,0l23,8.1c0.2,0.1,0.3,0.2,0.3,0.4l3.5,23.7
	C967.7,182.6,967.5,182.8,967.2,182.9C967.2,182.9,967.2,182.9,967.2,182.9z"/>
<linearGradient id="SVGID_15_" gradientUnits="userSpaceOnUse" x1="1280.4086" y1="60.9284" x2="1280.4086" y2="594.3746">
	<stop  offset="0" style="stop-color:#FFFFFF"/>
	<stop  offset="1" style="stop-color:#000000"/>
</linearGradient>
<path class="st14" d="M1364.5,365.4C1364.5,365.4,1364.5,365.4,1364.5,365.4l-48.1-5c0,0-0.1,0-0.1,0l-42-14c-0.1,0-0.1-0.1-0.2-0.1
	l-17.9-16.9h-20.7l-16.9,5c0,0-0.1,0-0.1,0h-21c-0.2,0-0.4-0.1-0.5-0.3l-9.9-24l-15.6,7.5c-0.2,0.1-0.5,0-0.7-0.2
	c-0.1-0.2,0-0.5,0.2-0.7l16.1-7.7c0.1-0.1,0.3-0.1,0.4,0c0.1,0,0.2,0.1,0.3,0.3l10,24.1h20.6l16.9-5c0,0,0.1,0,0.1,0h21
	c0.1,0,0.3,0,0.3,0.1l17.9,16.9l41.8,13.9l47.9,5l24.9-3c0.3,0,0.5,0.2,0.6,0.4c0,0.3-0.2,0.5-0.4,0.6L1364.5,365.4
	C1364.6,365.4,1364.5,365.4,1364.5,365.4z"/>
<linearGradient id="SVGID_16_" gradientUnits="userSpaceOnUse" x1="937.1166" y1="60.9284" x2="937.1166" y2="594.3746">
	<stop  offset="0" style="stop-color:#FFFFFF"/>
	<stop  offset="1" style="stop-color:#000000"/>
</linearGradient>
<path class="st15" d="M1143.3,307.9c-0.1,0-0.1,0-0.2,0l-43-20c0,0-0.1,0-0.1-0.1l-18.8-16.8l-18.7,8.9c-0.2,0.1-0.3,0.1-0.5,0
	l-19-12c-0.1,0-0.1-0.1-0.1-0.1l-18-27l-18.8-18.8l-18.7-3.9l-18.9,6c-0.1,0-0.1,0-0.2,0l-16.9-1l-18.9,7c-0.2,0.1-0.3,0-0.5-0.1
	l-16.9-13l-19.5-6.8l-19.8,31.7c0,0.1-0.1,0.1-0.2,0.2l-17.9,11l-18.9,24.9c-0.1,0.1-0.3,0.2-0.5,0.2l-18-2c-0.1,0-0.2-0.1-0.3-0.1
	L801.3,260l-37.7,19.8c-0.1,0.1-0.2,0.1-0.3,0l-32.4-6c-0.3-0.1-0.5-0.3-0.4-0.6s0.3-0.4,0.6-0.4l32.3,6l37.8-19.9
	c0.2-0.1,0.4-0.1,0.6,0.1l18.9,15.9l17.6,2l18.8-24.8c0,0,0.1-0.1,0.1-0.1l17.9-10.9l19.9-31.9c0.1-0.2,0.4-0.3,0.6-0.2l20,7
	c0,0,0.1,0,0.1,0.1l16.8,12.8l18.7-6.9c0.1,0,0.1,0,0.2,0l16.9,1l18.9-6c0.1,0,0.2,0,0.3,0l19,4c0.1,0,0.2,0.1,0.3,0.1l19,19l18,27
	l18.7,11.8l18.8-8.9c0.2-0.1,0.4-0.1,0.5,0.1l18.9,17l42.9,20c0.2,0.1,0.4,0.4,0.2,0.7C1143.7,307.8,1143.5,307.9,1143.3,307.9z"/>
<linearGradient id="SVGID_17_" gradientUnits="userSpaceOnUse" x1="1049.2173" y1="60.9284" x2="1049.2173" y2="594.3746">
	<stop  offset="0" style="stop-color:#FFFFFF"/>
	<stop  offset="1" style="stop-color:#000000"/>
</linearGradient>
<path class="st16" d="M1136.4,310.8c-0.1,0-0.2,0-0.2-0.1l-12.8-6.4h-19.9c-0.1,0-0.2,0-0.3-0.1l-16.8-11.9l-18.8,3
	c-0.1,0-0.2,0-0.3-0.1l-19.9-11l-18.9-4c-0.1,0-0.2-0.1-0.2-0.1l-37.8-34.8l-28.2,13.4c-0.2,0.1-0.5,0-0.7-0.2
	c-0.1-0.2,0-0.5,0.2-0.7l28.5-13.6c0.2-0.1,0.4-0.1,0.6,0.1l37.9,34.9l18.9,4c0,0,0.1,0,0.1,0.1l19.8,10.9l18.8-3
	c0.1,0,0.3,0,0.4,0.1l16.9,11.9h19.8c0.1,0,0.2,0,0.2,0.1l12.9,6.4c0.2,0.1,0.3,0.4,0.2,0.7C1136.8,310.7,1136.6,310.8,1136.4,310.8
	z"/>
<linearGradient id="SVGID_18_" gradientUnits="userSpaceOnUse" x1="768.985" y1="60.9284" x2="768.985" y2="594.3746">
	<stop  offset="0" style="stop-color:#FFFFFF"/>
	<stop  offset="1" style="stop-color:#000000"/>
</linearGradient>
<path class="st17" d="M708.5,288.4h-19l-20.1-4c-0.1,0-0.1,0-0.1-0.1l-17.9-10l-18.8-4l-21.6,2.3c-0.3,0-0.5-0.2-0.6-0.4
	s0.2-0.5,0.4-0.6l21.7-2.4c0.1,0,0.1,0,0.2,0l19,4c0,0,0.1,0,0.1,0.1l17.9,10l19.9,4l18.7,0l18.9-17.9c0.2-0.2,0.5-0.2,0.6,0
	l16.9,12.9l78.8,2l34.8-8l18.9-13.9l21-26.9c0.1-0.1,0.3-0.2,0.5-0.2l17,2c0.1,0,0.3,0.1,0.4,0.2l11.6,16.9c0.2,0.2,0.1,0.5-0.1,0.7
	c-0.2,0.2-0.5,0.1-0.7-0.1l-11.5-16.7l-16.5-1.9l-20.8,26.8c0,0-0.1,0.1-0.1,0.1l-19,14c-0.1,0-0.1,0.1-0.2,0.1l-35,8
	c0,0-0.1,0-0.1,0l-79-2c-0.1,0-0.2,0-0.3-0.1l-16.7-12.7l-18.7,17.7C708.8,288.3,708.7,288.4,708.5,288.4z"/>
<linearGradient id="SVGID_19_" gradientUnits="userSpaceOnUse" x1="744.6182" y1="60.9284" x2="744.6182" y2="594.3746">
	<stop  offset="0" style="stop-color:#FFFFFF"/>
	<stop  offset="1" style="stop-color:#000000"/>
</linearGradient>
<path class="st18" d="M612.5,322.4c-0.1,0-0.2,0-0.2-0.1l-21-11c-0.1,0-0.1-0.1-0.2-0.2l-14.9-22.9l-20.9-13.9c0,0-0.1-0.1-0.1-0.1
	l-20-24l-16.7-12.8l-29.7,11.9c-0.2,0.1-0.3,0-0.5,0l-18-12c-0.2-0.2-0.3-0.5-0.1-0.7c0.2-0.2,0.5-0.3,0.7-0.1l17.8,11.9l29.8-11.9
	c0.2-0.1,0.3,0,0.5,0.1l17,13c0,0,0.1,0,0.1,0.1l20,23.9l20.9,14c0.1,0,0.1,0.1,0.1,0.1l14.9,22.9l20.7,10.8l35.8-14.9
	c0.1,0,0.2,0,0.3,0l37.8,10l20.8-9.9l18.9-18.9c0.1-0.1,0.3-0.2,0.5-0.1l18,5l18,9l20.9,2l19,0c0,0,0.1,0,0.1,0l16.8,4.9l19.8-15.8
	c0.1-0.1,0.2-0.1,0.2-0.1l36.9-5l38.9-30.9c0.1-0.1,0.1-0.1,0.2-0.1l29-5c0.1,0,0.2,0,0.3,0l45,17c0.1,0,0.1,0.1,0.2,0.1l29.2,34
	c0.2,0.2,0.2,0.5-0.1,0.7c-0.2,0.2-0.5,0.2-0.7-0.1l-29.1-33.9l-44.8-16.9l-28.7,5l-38.9,30.9c-0.1,0.1-0.2,0.1-0.2,0.1l-36.9,5
	l-19.9,15.9c-0.1,0.1-0.3,0.1-0.5,0.1l-16.9-5h-18.9l-21-2c-0.1,0-0.1,0-0.2-0.1l-18-9l-17.6-4.9l-18.8,18.8c0,0-0.1,0.1-0.1,0.1
	l-21,10c-0.1,0.1-0.2,0.1-0.3,0l-37.8-10l-35.8,14.9C612.7,322.4,612.6,322.4,612.5,322.4z"/>
<linearGradient id="SVGID_20_" gradientUnits="userSpaceOnUse" x1="1112.1584" y1="60.9284" x2="1112.1584" y2="594.3746">
	<stop  offset="0" style="stop-color:#FFFFFF"/>
	<stop  offset="1" style="stop-color:#000000"/>
</linearGradient>
<path class="st19" d="M1183.7,329.7c-0.1,0-0.2,0-0.3-0.1l-19.1-18.2l-19.7-3.9l-18.9,7.9c-0.1,0-0.1,0-0.2,0h-22
	c-0.1,0-0.2,0-0.3-0.1l-17.9-16.9l-35.6-4l-8.8,11.1c-0.2,0.2-0.5,0.3-0.7,0.1s-0.3-0.5-0.1-0.7l8.9-11.3c0.1-0.1,0.3-0.2,0.4-0.2
	l36,4c0.1,0,0.2,0.1,0.3,0.1l17.9,16.9h21.7l18.9-8c0.1,0,0.2,0,0.3,0l20,4c0.1,0,0.2,0.1,0.2,0.1l19.2,18.3c0.2,0.2,0.2,0.5,0,0.7
	C1184,329.6,1183.9,329.7,1183.7,329.7z"/>
<linearGradient id="SVGID_21_" gradientUnits="userSpaceOnUse" x1="815.1576" y1="60.9284" x2="815.1576" y2="594.3746">
	<stop  offset="0" style="stop-color:#FFFFFF"/>
	<stop  offset="1" style="stop-color:#000000"/>
</linearGradient>
<path class="st20" d="M607.5,346.6c-0.1,0-0.2,0-0.3-0.1l-18-12.2c0,0-0.1-0.1-0.1-0.1l-37-43L523,259.7l-13.3-5.1
	c-0.3-0.1-0.4-0.4-0.3-0.6c0.1-0.3,0.4-0.4,0.6-0.3l13.4,5.2c0.1,0,0.1,0.1,0.2,0.1l29.2,31.6l37,43l17.8,12.1l19.6-0.2l19.9-19.9
	c0.2-0.2,0.4-0.2,0.6-0.1l18.8,9.9l37.7-9.9l18.9-16.9c0.1-0.1,0.3-0.1,0.4-0.1l17.9,3l19.9-5c0.1,0,0.1,0,0.2,0l21,4l36.9,4l18.9-5
	c0,0,0.1,0,0.2,0l19.9,1l38.9-15c0,0,0.1,0,0.2,0l16.9-1l17.9-9.9c0.1,0,0.1-0.1,0.2-0.1l21-2c0.1,0,0.1,0,0.2,0l59,16
	c0.1,0,0.1,0,0.1,0.1l17.7,11.8l20.7-11.8c0.1-0.1,0.3-0.1,0.4,0l22,8c0,0,0.1,0,0.1,0.1l14.9,9.9l31.7,2c0.3,0,0.5,0.3,0.5,0.5
	c0,0.3-0.2,0.5-0.5,0.5l-31.9-2c-0.1,0-0.2,0-0.2-0.1l-15-10l-21.7-7.9l-20.8,11.9c-0.2,0.1-0.4,0.1-0.5,0l-17.9-12l-58.8-16
	l-20.8,2l-17.9,9.9c-0.1,0-0.1,0.1-0.2,0.1l-16.9,1l-38.9,15c-0.1,0-0.1,0-0.2,0l-19.9-1l-18.9,5c-0.1,0-0.1,0-0.2,0l-37-4l-20.9-4
	l-19.9,5c-0.1,0-0.1,0-0.2,0l-17.8-3l-18.8,16.8c-0.1,0.1-0.1,0.1-0.2,0.1l-38,10c-0.1,0-0.2,0-0.4,0l-18.7-9.8l-19.7,19.7
	c-0.1,0.1-0.2,0.1-0.3,0.1L607.5,346.6C607.5,346.6,607.5,346.6,607.5,346.6z"/>
<linearGradient id="SVGID_22_" gradientUnits="userSpaceOnUse" x1="860.0045" y1="60.9284" x2="860.0045" y2="594.3746">
	<stop  offset="0" style="stop-color:#FFFFFF"/>
	<stop  offset="1" style="stop-color:#000000"/>
</linearGradient>
<path class="st21" d="M593.9,350.5c-0.1,0-0.3-0.1-0.4-0.2l-23.4-27.1l-37.9-31.9l-22-22l-8.3-10.6c-0.2-0.2-0.1-0.5,0.1-0.7
	c0.2-0.2,0.5-0.1,0.7,0.1l8.3,10.6l22,22l38,32l23.3,26.9l33.2-1.1l17.9-12.9c0.1-0.1,0.2-0.1,0.4-0.1l37.8,6l37.9-18.9
	c0.1-0.1,0.3-0.1,0.5,0l18.8,9.9l18.8-4c0.1,0,0.2,0,0.2,0l20.8,6l57.9-19.9c0.1,0,0.3,0,0.4,0l17.9,11l15.9,5l22.9-1l19.8-5.9
	l16.9-16.9c0.1-0.1,0.1-0.1,0.2-0.1l21-5c0.1,0,0.1,0,0.2,0l39,5c0.1,0,0.2,0.1,0.3,0.1l18.9,16.9h19.7l36.9-12
	c0.2-0.1,0.4,0,0.5,0.1l18.8,16.8l58.7-17.9c0.1,0,0.3,0,0.4,0l71.2,35.1c0.2,0.1,0.3,0.4,0.2,0.7c-0.1,0.2-0.4,0.3-0.7,0.2l-71-35
	l-58.8,17.9c-0.2,0.1-0.3,0-0.5-0.1l-18.8-16.8l-36.7,11.9c0,0-0.1,0-0.2,0h-20c-0.1,0-0.2,0-0.3-0.1l-18.9-16.9l-38.8-5l-20.8,4.9
	l-16.9,16.9c-0.1,0.1-0.1,0.1-0.2,0.1l-20,6c0,0-0.1,0-0.1,0l-23,1c-0.1,0-0.1,0-0.2,0l-16-5c0,0-0.1,0-0.1-0.1l-17.8-10.9
	l-57.8,19.9c-0.1,0-0.2,0-0.3,0l-20.9-6l-18.9,4c-0.1,0-0.2,0-0.3,0l-18.8-9.9l-37.8,18.9c-0.1,0-0.2,0.1-0.3,0l-37.8-6l-17.8,12.9
	c-0.1,0.1-0.2,0.1-0.3,0.1L593.9,350.5C593.9,350.5,593.9,350.5,593.9,350.5z"/>
<linearGradient id="SVGID_23_" gradientUnits="userSpaceOnUse" x1="770.3345" y1="60.9284" x2="770.3345" y2="594.3746">
	<stop  offset="0" style="stop-color:#FFFFFF"/>
	<stop  offset="1" style="stop-color:#000000"/>
</linearGradient>
<path class="st22" d="M760.5,359.4c0,0-0.1,0-0.1,0l-20-5c-0.1,0-0.1,0-0.2-0.1l-19.8-13.8l-17.7,8.9c-0.1,0-0.2,0.1-0.3,0.1
	l-19.9-2l-22,3.1l-72.9,6.9c-0.2,0-0.3,0-0.4-0.1L470.3,237.4l-18.7,3c-0.1,0-0.2,0-0.3,0L400,221.2l-25.1,28c0,0-0.1,0.1-0.1,0.1
	L355,259.9l-18.2,26.3c-0.2,0.2-0.5,0.3-0.7,0.1c-0.2-0.2-0.3-0.5-0.1-0.7l18.3-26.4c0-0.1,0.1-0.1,0.2-0.2l19.8-10.6l25.2-28.2
	c0.1-0.2,0.4-0.2,0.5-0.1l51.6,19.2l18.9-3c0.2,0,0.3,0,0.4,0.1l117,119.8l72.6-6.9l22-3.1c0,0,0.1,0,0.1,0l19.9,2l17.9-8.9
	c0.2-0.1,0.4-0.1,0.5,0l19.9,13.9l19.7,4.9l37.8-23.9c0.1-0.1,0.2-0.1,0.3-0.1l37,2c0.1,0,0.2,0,0.3,0.1l20.8,15.8l19.7-6.9
	c0.1,0,0.1,0,0.2,0h37.8l19.9-15.9c0.1,0,0.1-0.1,0.2-0.1l37-10c0.1,0,0.3,0,0.4,0.1l20.9,13.9l20.8,1l17.9-7c0.1,0,0.2,0,0.2,0
	l18.9,2l17.9-4c0.1,0,0.3,0,0.4,0.1l18.8,10.9l40.8-13.9c0.1,0,0.2,0,0.2,0l38,6c0.1,0,0.2,0,0.2,0.1l18.9,14l18.7,6
	c0.3,0.1,0.4,0.4,0.3,0.6c-0.1,0.3-0.4,0.4-0.6,0.3l-18.7-6c-0.1,0-0.1,0-0.1-0.1l-18.9-13.9l-37.8-6l-40.9,14c-0.1,0-0.3,0-0.4,0
	l-18.8-10.9l-17.8,4c-0.1,0-0.1,0-0.2,0l-18.9-2l-17.9,7c-0.1,0-0.1,0-0.2,0l-21-1c-0.1,0-0.2,0-0.3-0.1l-20.8-13.9l-36.7,9.9
	l-19.9,15.9c-0.1,0.1-0.2,0.1-0.3,0.1h-37.9l-19.9,7c-0.2,0.1-0.3,0-0.5-0.1l-20.9-15.9l-36.7-2l-37.9,23.9
	C760.7,359.4,760.6,359.4,760.5,359.4z"/>
<linearGradient id="SVGID_24_" gradientUnits="userSpaceOnUse" x1="1243.4382" y1="60.9284" x2="1243.4382" y2="594.3746">
	<stop  offset="0" style="stop-color:#FFFFFF"/>
	<stop  offset="1" style="stop-color:#000000"/>
</linearGradient>
<path class="st23" d="M1273.4,373.5c-0.1,0-0.2,0-0.3-0.1l-50.6-29.9l-8.8,6c-0.2,0.2-0.5,0.1-0.7-0.1c-0.2-0.2-0.1-0.5,0.1-0.7
	l9-6.2c0.2-0.1,0.4-0.1,0.5,0l50.8,30.1c0.2,0.1,0.3,0.4,0.2,0.7C1273.7,373.4,1273.5,373.5,1273.4,373.5z"/>
<linearGradient id="SVGID_25_" gradientUnits="userSpaceOnUse" x1="1338.0421" y1="60.9284" x2="1338.0421" y2="594.3746">
	<stop  offset="0" style="stop-color:#FFFFFF"/>
	<stop  offset="1" style="stop-color:#000000"/>
</linearGradient>
<path class="st24" d="M1308.8,382.5c-0.2,0-0.4-0.1-0.5-0.4c-0.1-0.3,0.1-0.5,0.4-0.6l43.4-11.4c0.1,0,0.3,0,0.4,0.1l15,11.4
	c0.2,0.2,0.3,0.5,0.1,0.7c-0.2,0.2-0.5,0.3-0.7,0.1l-14.8-11.2l-43.1,11.3C1308.9,382.5,1308.9,382.5,1308.8,382.5z"/>
<linearGradient id="SVGID_26_" gradientUnits="userSpaceOnUse" x1="512.8488" y1="60.9284" x2="512.8488" y2="594.3746">
	<stop  offset="0" style="stop-color:#FFFFFF"/>
	<stop  offset="1" style="stop-color:#000000"/>
</linearGradient>
<path class="st25" d="M577.5,357.6c-0.1,0-0.3-0.1-0.4-0.2l-35.9-39.1l-19.9-7c-0.1,0-0.1-0.1-0.2-0.1l-19.9-20.8h-16.8
	c-0.1,0-0.1,0-0.2,0L448,276.5c-0.3-0.1-0.4-0.4-0.3-0.6c0.1-0.3,0.4-0.4,0.6-0.3l36.2,13.8h16.9c0.1,0,0.3,0.1,0.4,0.2l19.9,20.9
	l19.9,7c0.1,0,0.1,0.1,0.2,0.1l36,39.2c0.2,0.2,0.2,0.5,0,0.7C577.7,357.5,577.6,357.6,577.5,357.6z"/>
<linearGradient id="SVGID_27_" gradientUnits="userSpaceOnUse" x1="931.0256" y1="60.9284" x2="931.0256" y2="594.3746">
	<stop  offset="0" style="stop-color:#FFFFFF"/>
	<stop  offset="1" style="stop-color:#000000"/>
</linearGradient>
<path style="fill:url(#SVGID_27_);" d="M1324.5,387.4c0,0-0.1,0-0.1,0l-20-6c-0.1,0-0.1-0.1-0.2-0.1l-16.7-15.7l-18.7,10.8
	c-0.1,0.1-0.3,0.1-0.5,0l-45.9-21.9l-25.8,5c-0.1,0-0.3,0-0.4-0.1l-20.8-14.8l-23.7,11.9c-0.1,0-0.1,0.1-0.2,0.1h-62
	c-0.1,0-0.2,0-0.3-0.1l-17.8-12.8l-19.7,7.9c-0.1,0-0.1,0-0.2,0h-35l-24.1-3c-0.1,0-0.2,0-0.2-0.1l-17.8-11.9l-17.7,5.9l-23.9,18.9
	c-0.1,0-0.1,0.1-0.2,0.1L895.4,372c0,0-0.1,0-0.1,0l-38.7,1.4c-0.1,0-0.2,0-0.3-0.1l-19.7-14.8l-19.7,11.8c-0.1,0.1-0.3,0.1-0.4,0.1
	l-17.9-5h-20.8l-21.9,15.9c-0.1,0.1-0.2,0.1-0.3,0.1h-18c-0.1,0-0.2,0-0.2-0.1l-17.9-9l-20.9-2l-38-9l-37.9,9c-0.1,0-0.2,0-0.3,0
	l-17-8.6l-25.7,3.7c-0.1,0-0.2,0-0.3,0l-42-17c-0.3-0.1-0.4-0.4-0.3-0.7c0.1-0.3,0.4-0.4,0.7-0.3l41.9,16.9l25.7-3.7
	c0.1,0,0.2,0,0.3,0l17,8.6l37.8-9c0.1,0,0.2,0,0.2,0l38,9l20.9,2c0.1,0,0.1,0,0.2,0.1l17.9,8.9h17.7l21.9-15.9
	c0.1-0.1,0.2-0.1,0.3-0.1h21c0,0,0.1,0,0.1,0l17.8,4.9l19.8-11.9c0.2-0.1,0.4-0.1,0.6,0l19.9,14.9l38.5-1.4l37.1-10.6l23.9-18.9
	c0,0,0.1-0.1,0.2-0.1l18-6c0.1-0.1,0.3,0,0.4,0.1l17.9,11.9l23.9,3l34.8,0l19.9-8c0.2-0.1,0.3,0,0.5,0.1l17.9,12.9h61.7l23.9-11.9
	c0.2-0.1,0.4-0.1,0.5,0l20.8,14.9l25.8-5c0.1,0,0.2,0,0.3,0l45.8,21.9l18.8-10.9c0.2-0.1,0.4-0.1,0.6,0.1l16.9,15.9l19.9,6
	c0.3,0.1,0.4,0.4,0.3,0.6C1324.9,387.2,1324.7,387.4,1324.5,387.4z"/>
<linearGradient id="SVGID_28_" gradientUnits="userSpaceOnUse" x1="849.5253" y1="60.9284" x2="849.5253" y2="594.3746">
	<stop  offset="0" style="stop-color:#FFFFFF"/>
	<stop  offset="1" style="stop-color:#000000"/>
</linearGradient>
<path class="st27" d="M794.5,396.4C794.5,396.4,794.5,396.4,794.5,396.4l-20-4l-34.9,4c-0.1,0-0.2,0-0.3,0l-40.9-19l-37.7-7.9
	l-21.8,13.9c-0.1,0.1-0.3,0.1-0.4,0.1l-49-14c-0.3-0.1-0.4-0.4-0.3-0.6c0.1-0.3,0.4-0.4,0.6-0.3l48.8,13.9l21.8-13.9
	c0.1-0.1,0.2-0.1,0.4-0.1l38,8c0,0,0.1,0,0.1,0l40.9,18.9l34.9-4c0.1,0,0.1,0,0.2,0l19.9,4l39.9-8c0,0,0.1,0,0.1,0l22.8,2l16.9-10.9
	c0,0,0.1,0,0.1-0.1l45-12c0.1,0,0.2,0,0.3,0l15.8,4.9l37.8-13.9c0.1,0,0.3,0,0.4,0l18.9,9.9l20.8-3c0.1,0,0.1,0,0.1,0l18.9,3
	l21.9-9.9c0.1-0.1,0.3-0.1,0.4,0l35.8,16.9l18.8-6.9c0.3-0.1,0.5,0,0.6,0.3c0.1,0.3,0,0.5-0.3,0.6l-19,7c-0.1,0-0.3,0-0.4,0
	l-35.8-16.9l-21.8,9.9c-0.1,0-0.2,0.1-0.3,0l-18.9-3l-20.9,3c-0.1,0-0.2,0-0.3-0.1l-18.8-9.9l-37.8,13.9c-0.1,0-0.2,0-0.3,0l-15.9-5
	l-44.8,11.9l-16.9,11c-0.1,0.1-0.2,0.1-0.3,0.1l-22.9-2L794.5,396.4C794.6,396.4,794.6,396.4,794.5,396.4z"/>
<linearGradient id="SVGID_29_" gradientUnits="userSpaceOnUse" x1="1032.0254" y1="60.9284" x2="1032.0254" y2="594.3746">
	<stop  offset="0" style="stop-color:#FFFFFF"/>
	<stop  offset="1" style="stop-color:#000000"/>
</linearGradient>
<path class="st28" d="M755.5,419.4c-0.1,0-0.1,0-0.2,0l-98.9-35l-21.9,3c-0.3,0-0.5-0.2-0.6-0.4c0-0.3,0.2-0.5,0.4-0.6l22-3
	c0.1,0,0.2,0,0.2,0l98.9,35l98.7-14l19.9-20.9c0.1-0.1,0.1-0.1,0.2-0.1l18-6l24.6-7.9c0.1,0,0.3,0,0.4,0l35.3,18.8l41.8-2l18.9-9
	c0.1,0,0.2-0.1,0.3,0l17.9,4l40.9-5c0.1,0,0.2,0,0.2,0l39.8,13.9l16.8-7.9c0.1,0,0.1,0,0.2,0h21.9l20.9-10c0.1,0,0.1,0,0.2,0l40-4
	c0.1,0,0.2,0,0.3,0.1l38.9,21l17.8,4l21.9-5c0.1,0,0.2,0,0.3,0l38.9,14l19.8,1l20.9-9.9c0.1,0,0.2-0.1,0.3,0l19,2l20.9-2
	c0.1,0,0.2,0,0.3,0.1l18,12c0.2,0.2,0.3,0.5,0.1,0.7c-0.2,0.2-0.5,0.3-0.7,0.1l-17.9-11.9l-20.8,2l-19-2l-20.9,9.9
	c-0.1,0-0.2,0.1-0.2,0l-20-1c0,0-0.1,0-0.1,0l-38.9-14l-21.9,5c-0.1,0-0.1,0-0.2,0l-18-4c0,0-0.1,0-0.1,0l-38.9-20.9l-39.8,4
	l-20.9,10c-0.1,0-0.1,0-0.2,0h-21.9l-16.9,8c-0.1,0.1-0.3,0.1-0.4,0l-39.9-14l-40.9,5c-0.1,0-0.1,0-0.2,0l-17.8-4l-18.8,8.9
	c-0.1,0-0.1,0-0.2,0l-42,2c-0.1,0-0.2,0-0.3-0.1l-35.2-18.8l-24.4,7.8l-17.9,6l-19.9,20.9c-0.1,0.1-0.2,0.1-0.3,0.2L755.5,419.4
	C755.6,419.4,755.5,419.4,755.5,419.4z"/>
<linearGradient id="SVGID_30_" gradientUnits="userSpaceOnUse" x1="455.0691" y1="60.9284" x2="455.0691" y2="594.3746">
	<stop  offset="0" style="stop-color:#FFFFFF"/>
	<stop  offset="1" style="stop-color:#000000"/>
</linearGradient>
<path class="st29" d="M596.5,384.4c-0.1,0-0.1,0-0.2,0l-81-28l-41.1-22c-0.1,0-0.1-0.1-0.2-0.2l-18-28.9l-20.8-16.8h-20.7
	l-39.9,29.9c-0.1,0.1-0.2,0.1-0.2,0.1l-19.9,2l-40.8,26.3c-0.2,0.1-0.5,0.1-0.7-0.1c-0.1-0.2-0.1-0.5,0.1-0.7l40.9-26.3
	c0.1,0,0.1-0.1,0.2-0.1l19.9-2l39.9-29.9c0.1-0.1,0.2-0.1,0.3-0.1h21c0.1,0,0.2,0,0.3,0.1l21,17c0,0,0.1,0.1,0.1,0.1l17.9,28.9
	l40.9,21.9l80.9,28c0.3,0.1,0.4,0.4,0.3,0.6C596.9,384.3,596.7,384.4,596.5,384.4z"/>
<linearGradient id="SVGID_31_" gradientUnits="userSpaceOnUse" x1="873.0255" y1="60.9284" x2="873.0255" y2="594.3746">
	<stop  offset="0" style="stop-color:#FFFFFF"/>
	<stop  offset="1" style="stop-color:#000000"/>
</linearGradient>
<path class="st30" d="M755.5,439.4c-0.1,0-0.2,0-0.2-0.1c-15.5-7.9-39.1-19.8-40.8-19.9l-21,0c-0.1,0-0.1,0-0.2,0l-19.9-7h-16.9
	c-0.1,0-0.1,0-0.2,0l-24-10c-0.3-0.1-0.4-0.4-0.3-0.7c0.1-0.3,0.4-0.4,0.7-0.3l23.9,10h16.9c0.1,0,0.1,0,0.2,0l19.9,7h20.9
	c2,0,34.2,16.4,41.1,20l19.8-5l38-2l31.8-15.9l30.9-29c0,0,0.1-0.1,0.1-0.1l19-8c0.1,0,0.2-0.1,0.3,0l41,10c0,0,0.1,0,0.1,0
	l34.9,16.9h22.8l18.9-8c0.1,0,0.2,0,0.2,0l40,3l60,10c0.3,0,0.5,0.3,0.4,0.6s-0.3,0.5-0.6,0.4l-60-10l-39.8-3l-18.9,8
	c-0.1,0-0.1,0-0.2,0h-23c-0.1,0-0.2,0-0.2-0.1l-35-17l-40.8-9.9l-18.8,7.9l-30.9,28.9c0,0-0.1,0.1-0.1,0.1l-32,16
	c-0.1,0-0.1,0-0.2,0.1l-38,2l-19.9,5C755.6,439.4,755.6,439.4,755.5,439.4z"/>
<linearGradient id="SVGID_32_" gradientUnits="userSpaceOnUse" x1="1152.5254" y1="60.9284" x2="1152.5254" y2="594.3746">
	<stop  offset="0" style="stop-color:#FFFFFF"/>
	<stop  offset="1" style="stop-color:#000000"/>
</linearGradient>
<path class="st31" d="M1133.5,401.4c-0.2,0-0.4-0.1-0.5-0.4c-0.1-0.3,0.1-0.5,0.3-0.6l18-5c0.1,0,0.1,0,0.2,0l20,2
	c0.3,0,0.5,0.3,0.4,0.5c0,0.3-0.3,0.5-0.5,0.4l-19.9-2l-17.9,5C1133.6,401.4,1133.6,401.4,1133.5,401.4z"/>
<linearGradient id="SVGID_33_" gradientUnits="userSpaceOnUse" x1="1234.0256" y1="60.9284" x2="1234.0256" y2="594.3746">
	<stop  offset="0" style="stop-color:#FFFFFF"/>
	<stop  offset="1" style="stop-color:#000000"/>
</linearGradient>
<path class="st32" d="M1273.5,416.4C1273.5,416.4,1273.5,416.4,1273.5,416.4l-22.1-4l-19.1-6c-0.1,0-0.1-0.1-0.2-0.1l-15.9-15.9
	h-21.8c-0.3,0-0.5-0.2-0.5-0.5s0.2-0.5,0.5-0.5h22c0.1,0,0.3,0.1,0.4,0.1l15.9,15.9l18.9,6l21.9,4c0.3,0,0.5,0.3,0.4,0.6
	C1274,416.2,1273.8,416.4,1273.5,416.4z"/>
<linearGradient id="SVGID_34_" gradientUnits="userSpaceOnUse" x1="1313.5256" y1="60.9284" x2="1313.5256" y2="594.3746">
	<stop  offset="0" style="stop-color:#FFFFFF"/>
	<stop  offset="1" style="stop-color:#000000"/>
</linearGradient>
<path class="st33" d="M1332.5,421.4c-0.1,0-0.2,0-0.2-0.1l-18.9-9.9l-18.8,2c-0.3,0-0.5-0.2-0.5-0.4c0-0.3,0.2-0.5,0.4-0.5l19-2
	c0.1,0,0.2,0,0.3,0.1l19,10c0.2,0.1,0.3,0.4,0.2,0.7C1332.9,421.3,1332.7,421.4,1332.5,421.4z"/>
<linearGradient id="SVGID_35_" gradientUnits="userSpaceOnUse" x1="1404.5254" y1="60.9284" x2="1404.5254" y2="594.3746">
	<stop  offset="0" style="stop-color:#FFFFFF"/>
	<stop  offset="1" style="stop-color:#000000"/>
</linearGradient>
<path class="st34" d="M1355.5,415.4c-0.2,0-0.3-0.1-0.4-0.3c-0.1-0.2,0-0.5,0.2-0.7l18-10c0.1,0,0.2-0.1,0.2-0.1h40c0,0,0.1,0,0.1,0
	l20.9,6h18.9c0.3,0,0.5,0.2,0.5,0.5s-0.2,0.5-0.5,0.5h-19c0,0-0.1,0-0.1,0l-20.9-6h-39.8l-17.9,9.9
	C1355.7,415.4,1355.6,415.4,1355.5,415.4z"/>
<linearGradient id="SVGID_36_" gradientUnits="userSpaceOnUse" x1="358.6264" y1="60.9284" x2="358.6264" y2="594.3746">
	<stop  offset="0" style="stop-color:#FFFFFF"/>
	<stop  offset="1" style="stop-color:#000000"/>
</linearGradient>
<path class="st35" d="M146.7,474.2c-0.2,0-0.3-0.1-0.4-0.2c-0.2-0.2-0.1-0.5,0.1-0.7l36.4-27.9l16.3-15.6l50-62.2
	c0.1-0.1,0.2-0.1,0.3-0.2l21.9-6l19.9-12c0,0,0.1,0,0.1-0.1l20-5c0.1,0,0.3,0,0.4,0.1l18.9,10.9l20.7-3l18.9-14.9
	c0.1-0.1,0.3-0.1,0.4-0.1l20.7,4.9l20.8-25.8c0-0.1,0.1-0.1,0.2-0.1l19-10c0.2-0.1,0.5-0.1,0.6,0.1l37,44l22.8,17.8l20.8-5.9
	c0.1,0,0.3,0,0.4,0.1l39.9,28.9l17.9,2c0.3,0,0.5,0.3,0.4,0.6c0,0.3-0.3,0.5-0.6,0.4l-18-2c-0.1,0-0.2,0-0.2-0.1l-39.8-28.9
	l-20.8,5.9c-0.2,0-0.3,0-0.4-0.1l-23-18c0,0-0.1,0-0.1-0.1l-36.7-43.7l-18.6,9.8l-20.9,25.9c-0.1,0.2-0.3,0.2-0.5,0.2l-20.8-4.9
	l-18.8,14.9c-0.1,0.1-0.2,0.1-0.2,0.1l-21,3c-0.1,0-0.2,0-0.3-0.1l-18.8-10.9l-19.7,4.9l-19.9,12c0,0-0.1,0-0.1,0.1l-21.8,6
	l-50,62.2l-16.4,15.7L147,474.1C146.9,474.1,146.8,474.2,146.7,474.2z"/>
<linearGradient id="SVGID_37_" gradientUnits="userSpaceOnUse" x1="1156.797" y1="60.9284" x2="1156.797" y2="594.3746">
	<stop  offset="0" style="stop-color:#FFFFFF"/>
	<stop  offset="1" style="stop-color:#000000"/>
</linearGradient>
<path class="st36" d="M817.1,441.6c-0.1,0-0.3-0.1-0.4-0.2c-0.2-0.2-0.2-0.5,0.1-0.7l16.5-14.2l19-13l20-21c0.1-0.1,0.2-0.1,0.3-0.1
	l20-4l20.1,0c0.1,0,0.1,0,0.2,0l31,15l30.9,12.9l20.8-2l17.9-8c0.1-0.1,0.3-0.1,0.4,0l62.9,23h19.9c0.1,0,0.1,0,0.2,0l18.9,7
	l59.8-10l19.9-12.9c0.1,0,0.2-0.1,0.2-0.1l21-1c0.1,0,0.2,0,0.3,0.1l17,12l22.8,10.9l39.8-8l21.1-1c0.1,0,0.1,0,0.2,0l17.9,5l21.9-2
	l21.9-7c0.1,0,0.1,0,0.2,0l40,1c0,0,0.1,0,0.1,0l13.9,4l23.8-1l19.9-11.9c0,0,0.1,0,0.1,0l19-6c0.3-0.1,0.5,0.1,0.6,0.3
	s-0.1,0.5-0.3,0.6l-18.9,6l-20,12c-0.1,0-0.2,0.1-0.2,0.1l-24,1c-0.1,0-0.1,0-0.2,0l-13.9-4l-39.9-1l-21.9,7c0,0-0.1,0-0.1,0l-22,2
	c-0.1,0-0.1,0-0.2,0l-17.9-5l-20.9,1l-39.9,8c-0.1,0-0.2,0-0.3,0l-23-11l-16.9-11.9l-20.7,1l-19.9,12.9c-0.1,0-0.1,0.1-0.2,0.1
	l-60,10c-0.1,0-0.2,0-0.3,0l-18.9-7h-19.9c-0.1,0-0.1,0-0.2,0l-62.8-22.9l-17.8,7.9c0,0-0.1,0-0.2,0l-21,2c-0.1,0-0.2,0-0.2,0
	l-31-13l-30.9-15h-19.9l-19.7,4l-19.9,20.9c0,0-0.1,0-0.1,0.1l-19,13l-16.4,14.2C817.3,441.6,817.2,441.6,817.1,441.6z"/>
<linearGradient id="SVGID_38_" gradientUnits="userSpaceOnUse" x1="691.0137" y1="60.9284" x2="691.0137" y2="594.3746">
	<stop  offset="0" style="stop-color:#FFFFFF"/>
	<stop  offset="1" style="stop-color:#000000"/>
</linearGradient>
<path class="st37" d="M751.5,451.4c0,0-0.1,0-0.1,0l-61-16l-36.9-3c-0.1,0-0.1,0-0.2,0l-27-13l-33.9-11c-0.3-0.1-0.4-0.4-0.3-0.6
	s0.4-0.4,0.6-0.3l34,11l27,13l36.9,3l61,16c3.3-0.9,18-5,19-5c1,0,16.3,2.7,18.1,3l0.9,0c0.3,0,0.5,0.2,0.5,0.5
	c0,0.3-0.3,0.5-0.5,0.5l-1,0c-6.9-1.2-17.3-3-18-3c-0.8,0-11.7,3-18.9,5C751.6,451.4,751.6,451.4,751.5,451.4z"/>
<linearGradient id="SVGID_39_" gradientUnits="userSpaceOnUse" x1="297.6545" y1="60.9284" x2="297.6545" y2="594.3746">
	<stop  offset="0" style="stop-color:#FFFFFF"/>
	<stop  offset="1" style="stop-color:#000000"/>
</linearGradient>
<path class="st38" d="M168.8,457.1c-0.1,0-0.2,0-0.3-0.1c-0.2-0.1-0.3-0.5-0.2-0.7l18.7-29.7c0,0,0.1-0.1,0.1-0.1l57-51
	c0,0,0.1-0.1,0.1-0.1l41-19c0.2-0.1,0.4-0.1,0.5,0.1l20,15l19.8,8.9l38.8-8.9l43.9-28c0,0,0.1,0,0.1-0.1l18-5
	c0.3-0.1,0.5,0.1,0.6,0.3s-0.1,0.5-0.3,0.6l-17.9,5l-43.9,28c0,0-0.1,0.1-0.2,0.1l-39,9c-0.1,0-0.2,0-0.3,0l-20-9c0,0-0.1,0-0.1-0.1
	l-19.8-14.8l-40.7,18.8l-56.9,50.9l-18.7,29.6C169.1,457,168.9,457.1,168.8,457.1z"/>
<linearGradient id="SVGID_40_" gradientUnits="userSpaceOnUse" x1="478.0255" y1="60.9284" x2="478.0255" y2="594.3746">
	<stop  offset="0" style="stop-color:#FFFFFF"/>
	<stop  offset="1" style="stop-color:#000000"/>
</linearGradient>
<path class="st39" d="M507.5,391.4c-0.1,0-0.2,0-0.2-0.1l-19-10c0,0-0.1-0.1-0.1-0.1l-21-21l-19-12c-0.2-0.1-0.3-0.5-0.2-0.7
	c0.1-0.2,0.5-0.3,0.7-0.2l19,12c0,0,0.1,0,0.1,0.1l20.9,20.9l18.9,10c0.2,0.1,0.3,0.4,0.2,0.7C507.9,391.3,507.7,391.4,507.5,391.4z
	"/>
<linearGradient id="SVGID_41_" gradientUnits="userSpaceOnUse" x1="537.5255" y1="60.9284" x2="537.5255" y2="594.3746">
	<stop  offset="0" style="stop-color:#FFFFFF"/>
	<stop  offset="1" style="stop-color:#000000"/>
</linearGradient>
<path class="st40" d="M548.5,407.4c-0.1,0-0.1,0-0.2,0l-22-8c-0.3-0.1-0.4-0.4-0.3-0.6c0.1-0.3,0.4-0.4,0.6-0.3l22,8
	c0.3,0.1,0.4,0.4,0.3,0.6C548.9,407.3,548.7,407.4,548.5,407.4z"/>
<linearGradient id="SVGID_42_" gradientUnits="userSpaceOnUse" x1="650.5673" y1="60.9166" x2="650.5673" y2="594.3629">
	<stop  offset="0" style="stop-color:#FFFFFF"/>
	<stop  offset="1" style="stop-color:#000000"/>
</linearGradient>
<path class="st41" d="M730.6,458.6C730.6,458.6,730.6,458.6,730.6,458.6l-22.1-0.2c0,0-0.1,0-0.1,0l-38.9-11l-20.9,4
	c-0.1,0-0.2,0-0.3,0l-39-16l-20-6c-0.1,0-0.1,0-0.2-0.1l-19-14c-0.2-0.2-0.3-0.5-0.1-0.7c0.2-0.2,0.5-0.3,0.7-0.1l18.9,13.9l19.9,6
	l38.9,16l20.9-4c0.1,0,0.2,0,0.2,0l38.9,11l22,0.2c0.3,0,0.5,0.2,0.5,0.5C731.1,458.3,730.9,458.6,730.6,458.6z"/>
<linearGradient id="SVGID_43_" gradientUnits="userSpaceOnUse" x1="186.9257" y1="60.9284" x2="186.9257" y2="594.3746">
	<stop  offset="0" style="stop-color:#FFFFFF"/>
	<stop  offset="1" style="stop-color:#000000"/>
</linearGradient>
<path class="st42" d="M95.3,493.4c-0.2,0-0.4-0.1-0.4-0.3c-0.1-0.2,0-0.5,0.2-0.7l33.4-17.3c0.1,0,0.1,0,0.2-0.1l18.4-1.7l23.4-8.5
	l20.6-21.3l29-38l18.1-17.1c0.1-0.1,0.1-0.1,0.2-0.1l21-5c0.1,0,0.2,0,0.3,0l19,7c0.3,0.1,0.4,0.4,0.3,0.6c-0.1,0.3-0.4,0.4-0.6,0.3
	l-18.9-6.9l-20.7,4.9l-17.9,16.9l-28.9,37.9l-20.7,21.5c-0.1,0.1-0.1,0.1-0.2,0.1l-23.6,8.5c0,0-0.1,0-0.1,0l-18.4,1.7l-33.4,17.3
	C95.5,493.3,95.4,493.4,95.3,493.4z"/>
<linearGradient id="SVGID_44_" gradientUnits="userSpaceOnUse" x1="1072.1166" y1="60.9284" x2="1072.1166" y2="594.3746">
	<stop  offset="0" style="stop-color:#FFFFFF"/>
	<stop  offset="1" style="stop-color:#000000"/>
</linearGradient>
<path class="st43" d="M708.9,463.3c-0.2,0-0.4-0.2-0.5-0.4c-0.1-0.3,0.1-0.5,0.4-0.6l35.6-7.9l27-1l53.8-15l30.9-24.9l16-13
	c0.1-0.1,0.2-0.1,0.3-0.1h27l14.1,2c0.1,0,0.1,0,0.2,0.1l60.9,31.9l20.9-2l20.9-6c0.1,0,0.2,0,0.3,0l39.9,16h18.9c0.1,0,0.1,0,0.2,0
	l17.9,8l39.9,7l68.9-12l18.1,0c0,0,0.1,0,0.1,0l39.9,12l36.8-1l31.9-15c0.1,0,0.2-0.1,0.3,0l29.9,3l32.9-13c0.1,0,0.2,0,0.3,0
	l42.8,7.2c0.3,0,0.5,0.3,0.4,0.6c0,0.3-0.3,0.5-0.6,0.4l-42.6-7.2l-32.9,12.9c-0.1,0-0.2,0-0.2,0l-29.9-3l-31.9,14.9
	c-0.1,0-0.1,0-0.2,0l-37,1c-0.1,0-0.1,0-0.2,0l-39.9-12h-17.9l-68.9,12c-0.1,0-0.1,0-0.2,0l-40-7c0,0-0.1,0-0.1,0l-17.9-8h-18.9
	c-0.1,0-0.1,0-0.2,0l-39.8-15.9l-20.8,6l-21.1,2c-0.1,0-0.2,0-0.3-0.1l-60.9-32l-13.9-2l-26.8,0l-15.9,12.9l-31,25
	c-0.1,0-0.1,0.1-0.2,0.1l-54,15c0,0-0.1,0-0.1,0l-27,1l-35.5,7.9C709,463.3,709,463.3,708.9,463.3z"/>
<linearGradient id="SVGID_45_" gradientUnits="userSpaceOnUse" x1="487.7896" y1="60.9284" x2="487.7896" y2="594.3746">
	<stop  offset="0" style="stop-color:#FFFFFF"/>
	<stop  offset="1" style="stop-color:#000000"/>
</linearGradient>
<path class="st44" d="M676.1,463.8c0,0-0.1,0-0.1,0l-30.5-7.4h-17.9c-0.1,0-0.1,0-0.2,0l-20.9-10l-39.9-8c0,0-0.1,0-0.1,0l-42-19
	c0,0-0.1,0-0.1-0.1l-22-16l-18.9-9l-38.9-28h-21.7l-61.9,28c-0.1,0-0.1,0-0.2,0h-13l-25.9,5c-0.1,0-0.1,0-0.2,0l-22-3
	c-0.3,0-0.5-0.3-0.4-0.6c0-0.3,0.3-0.5,0.6-0.4l21.9,3l25.9-5l13,0l61.9-28c0.1,0,0.1,0,0.2,0h22c0.1,0,0.2,0,0.3,0.1l39,28l18.9,9
	l22,16l41.9,19l39.9,8c0,0,0.1,0,0.1,0l20.9,10h17.9c0,0,0.1,0,0.1,0l30.5,7.4c0.3,0.1,0.4,0.3,0.4,0.6
	C676.5,463.6,676.3,463.8,676.1,463.8z"/>
<linearGradient id="SVGID_46_" gradientUnits="userSpaceOnUse" x1="335.7459" y1="60.9284" x2="335.7459" y2="594.3746">
	<stop  offset="0" style="stop-color:#FFFFFF"/>
	<stop  offset="1" style="stop-color:#000000"/>
</linearGradient>
<path class="st45" d="M110,485.8c-0.2,0-0.4-0.2-0.5-0.4c-0.1-0.3,0.1-0.5,0.4-0.6l13.3-3.1l20.4-1.2l21.3-5.3l15.2-12.8l51.9-59.9
	c0.1-0.1,0.2-0.1,0.3-0.2l21-4c0.1,0,0.2,0,0.3,0l33.9,16h28.8l17.9-8c0.1,0,0.1,0,0.2,0h43.9l19.9-10.9c0.1,0,0.1-0.1,0.2-0.1l21-2
	c0,0,0.1,0,0.1,0l39,7c0.1,0,0.1,0,0.2,0.1l42,23l61,27c0.3,0.1,0.4,0.4,0.3,0.7c-0.1,0.3-0.4,0.4-0.7,0.3l-61-27l-42-23l-38.9-7
	l-20.8,2l-19.9,11c-0.1,0-0.2,0.1-0.2,0.1h-43.9l-17.9,8c-0.1,0-0.1,0-0.2,0h-29c-0.1,0-0.1,0-0.2,0l-33.9-15.9l-20.7,3.9
	l-51.9,59.9l-15.4,12.9c-0.1,0-0.1,0.1-0.2,0.1l-21.5,5.3l-20.4,1.2l-13.3,3.1C110,485.8,110,485.8,110,485.8z"/>
<linearGradient id="SVGID_47_" gradientUnits="userSpaceOnUse" x1="861.5255" y1="60.9284" x2="861.5255" y2="594.3746">
	<stop  offset="0" style="stop-color:#FFFFFF"/>
	<stop  offset="1" style="stop-color:#000000"/>
</linearGradient>
<path class="st46" d="M1138.5,473.4c0,0-0.1,0-0.2,0l-18.9-6l-18.9,3c-0.1,0-0.1,0-0.2,0l-44-7l-41-12h-41.9c-0.1,0-0.2,0-0.3-0.1
	l-25-19l-34.8-17.9l-22.9,1c0,0-0.1,0-0.1,0l-17.8-4l-40.8,30.9c-0.1,0-0.1,0.1-0.2,0.1l-54,13l-52,10c-0.1,0-0.1,0-0.2,0l-30.9-4
	l-45.9,6c-0.1,0-0.1,0-0.2,0l-45.9-12h-17.9c-0.3,0-0.5-0.2-0.5-0.5s0.2-0.5,0.5-0.5h18c0,0,0.1,0,0.1,0l45.9,12l45.9-6
	c0,0,0.1,0,0.1,0l30.9,4l51.9-10l53.9-13l40.9-30.9c0.1-0.1,0.3-0.1,0.4-0.1l17.9,4l22.9-1c0.1,0,0.2,0,0.2,0.1l35,18l24.9,18.9
	h41.8c0,0,0.1,0,0.1,0l41,12l43.9,7l18.9-3c0.1,0,0.2,0,0.2,0l19,6c0.3,0.1,0.4,0.4,0.3,0.6C1138.9,473.2,1138.7,473.4,1138.5,473.4
	z"/>
<linearGradient id="SVGID_48_" gradientUnits="userSpaceOnUse" x1="1353.5222" y1="60.9284" x2="1353.5222" y2="594.3746">
	<stop  offset="0" style="stop-color:#FFFFFF"/>
	<stop  offset="1" style="stop-color:#000000"/>
</linearGradient>
<path class="st47" d="M1269.5,478.4l-29.1-2c0,0-0.1,0-0.1,0l-33.9-12c-8.2,0.8-21.6,2.2-22.6,2.9c-0.2,0.2-0.5,0.2-0.7,0
	c-0.2-0.2-0.2-0.5,0-0.7c1-1,16.6-2.5,23.3-3.1c0.1,0,0.1,0,0.2,0l33.9,12l28.9,2l43.9-2l44.9-19c7.8-3.5,33.2-15,34.2-15
	c1,0,30.2,2.7,32.9,3l19.9-10.9l78-33c0.3-0.1,0.5,0,0.7,0.3c0.1,0.3,0,0.5-0.3,0.7l-78,33l-20,11c-0.1,0-0.2,0.1-0.3,0.1
	c-8.9-0.8-32.2-3-33-3c-1.1,0.2-20.8,9.1-33.8,15l-45,19c-0.1,0-0.1,0-0.2,0L1269.5,478.4z"/>
<linearGradient id="SVGID_49_" gradientUnits="userSpaceOnUse" x1="870.6049" y1="60.9284" x2="870.6049" y2="594.3746">
	<stop  offset="0" style="stop-color:#FFFFFF"/>
	<stop  offset="1" style="stop-color:#000000"/>
</linearGradient>
<path class="st48" d="M1268.5,502.4C1268.5,502.4,1268.5,502.4,1268.5,502.4l-41-7l-60.9,7l-71.1-4c0,0-0.1,0-0.1,0l-44-12l-34-12
	l-41.9-3c-0.1,0-0.2,0-0.2-0.1l-17-10c-9.8-3.9-24.8-9.8-25.8-9.9c-0.7,0-14.7,1.3-21.9,2c-0.1,0-0.2,0-0.3,0l-18.9-9l-20.8-2
	l-17.9,8.9c0,0-0.1,0-0.1,0l-44,9l-33,9c0,0-0.1,0-0.1,0h-24l-68,5c-0.1,0-0.2,0-0.2,0l-9.9-4l-29.9,3l-64.1-6c-0.1,0-0.1,0-0.1,0
	l-38-16l-44.9-10l-61.9-26.9l-33.8,12.9c-0.1,0-0.1,0-0.2,0l-49-4l-22.8,0l-18.9,9.9c-0.1,0-0.1,0.1-0.2,0.1l-40,2
	c-0.1,0-0.1,0-0.2,0l-21-7l-20.6-2.9l-27.8,37.8L185.1,484c-0.2,0.2-0.5,0.3-0.7,0.1c-0.2-0.2-0.3-0.5-0.1-0.7l14.8-20.9l28-38
	c0.1-0.1,0.3-0.2,0.5-0.2l21,3l21,7l39.8-2l18.9-9.9c0.1,0,0.2-0.1,0.2-0.1h23l48.9,4l33.9-13c0.1,0,0.3,0,0.4,0l62,27l44.9,10
	l38,16l63.9,6l29.9-3c0.1,0,0.2,0,0.2,0l9.9,4l67.9-5l24,0l32.9-9l44-9l17.9-9c0.1,0,0.2-0.1,0.3-0.1l21,2c0.1,0,0.1,0,0.2,0
	l18.9,8.9c2-0.2,20.9-2,21.9-2c1,0,20.3,7.7,26.2,10l17,10l41.9,3c0,0,0.1,0,0.1,0l34,12l43.9,12l70.9,4l60.9-7c0,0,0.1,0,0.1,0
	l40.9,7l69.9-11l71.9-18l59.9-33l64.1-24c0.1,0,0.1,0,0.2,0h22c0.3,0,0.5,0.2,0.5,0.5s-0.2,0.5-0.5,0.5h-21.9l-63.9,24l-59.9,33
	c0,0-0.1,0-0.1,0l-72,18L1268.5,502.4C1268.6,502.4,1268.6,502.4,1268.5,502.4z"/>
<linearGradient id="SVGID_50_" gradientUnits="userSpaceOnUse" x1="979.0859" y1="60.9284" x2="979.0859" y2="594.3746">
	<stop  offset="0" style="stop-color:#FFFFFF"/>
	<stop  offset="1" style="stop-color:#000000"/>
</linearGradient>
<path class="st49" d="M1156.5,487.4h-60c-0.1,0-0.1,0-0.2,0l-21.9-7l-16.9,2c-0.1,0-0.2,0-0.3,0l-41.9-20.9l-18.9,2
	c-0.1,0-0.1,0-0.2,0l-25-5c-0.1,0-0.1,0-0.2-0.1l-38.9-22.9l-43.9-3l-33.8,3l-32.9,16l-19.9,10.7c-0.2,0.1-0.5,0-0.7-0.2
	c-0.1-0.2,0-0.5,0.2-0.7l19.9-10.8l33-16c0.1,0,0.1,0,0.2,0l34-3l44.1,3c0.1,0,0.2,0,0.2,0.1l38.9,23l24.8,5l18.9-2
	c0.1,0,0.2,0,0.3,0l41.9,20.9l16.9-2c0.1,0,0.1,0,0.2,0l21.9,7h59.9c0.3,0,0.5,0.2,0.5,0.5S1156.8,487.4,1156.5,487.4z"/>
<linearGradient id="SVGID_51_" gradientUnits="userSpaceOnUse" x1="1241.0255" y1="60.9284" x2="1241.0255" y2="594.3746">
	<stop  offset="0" style="stop-color:#FFFFFF"/>
	<stop  offset="1" style="stop-color:#000000"/>
</linearGradient>
<path class="st50" d="M1280.5,493.4C1280.5,493.4,1280.5,493.4,1280.5,493.4l-16.1-2l-33-11h-29.9c-0.3,0-0.5-0.2-0.5-0.5
	s0.2-0.5,0.5-0.5h30c0.1,0,0.1,0,0.2,0l33,11l15.9,2c0.3,0,0.5,0.3,0.4,0.6C1281,493.2,1280.8,493.4,1280.5,493.4z"/>
<linearGradient id="SVGID_52_" gradientUnits="userSpaceOnUse" x1="1429.0254" y1="60.9284" x2="1429.0254" y2="594.3746">
	<stop  offset="0" style="stop-color:#FFFFFF"/>
	<stop  offset="1" style="stop-color:#000000"/>
</linearGradient>
<path class="st51" d="M1306.5,488.4c-0.2,0-0.4-0.2-0.5-0.4c-0.1-0.3,0.1-0.5,0.4-0.6l39.9-8l40.9-19l40-10l36.9-22l87.1-31
	c0.3-0.1,0.5,0,0.6,0.3c0.1,0.3,0,0.5-0.3,0.6l-87,31l-36.9,22c0,0-0.1,0-0.1,0.1l-40,10l-40.9,19c0,0-0.1,0-0.1,0L1306.5,488.4
	C1306.6,488.4,1306.6,488.4,1306.5,488.4z"/>
<linearGradient id="SVGID_53_" gradientUnits="userSpaceOnUse" x1="328.7134" y1="60.9284" x2="328.7134" y2="594.3746">
	<stop  offset="0" style="stop-color:#FFFFFF"/>
	<stop  offset="1" style="stop-color:#000000"/>
</linearGradient>
<path class="st52" d="M199.9,478.4c-0.1,0-0.2,0-0.3-0.1c-0.2-0.2-0.3-0.5-0.1-0.7l20.6-30.1c0.1-0.1,0.3-0.2,0.4-0.2l60.9,3
	l21.9-12.9c0.1-0.1,0.2-0.1,0.3-0.1l65,4c0.1,0,0.2,0,0.2,0.1l18.9,10.9l36.8-4l32.9-14c0.3-0.1,0.5,0,0.7,0.3
	c0.1,0.3,0,0.5-0.3,0.7l-33,14c0,0-0.1,0-0.1,0l-37,4c-0.1,0-0.2,0-0.3-0.1l-18.9-10.9l-64.7-4l-21.9,12.9c-0.1,0-0.2,0.1-0.3,0.1
	l-60.7-3l-20.5,29.8C200.2,478.4,200.1,478.4,199.9,478.4z"/>
<linearGradient id="SVGID_54_" gradientUnits="userSpaceOnUse" x1="547.5255" y1="60.9284" x2="547.5255" y2="594.3746">
	<stop  offset="0" style="stop-color:#FFFFFF"/>
	<stop  offset="1" style="stop-color:#000000"/>
</linearGradient>
<path class="st53" d="M606.5,481.4c-0.1,0-0.1,0-0.2,0l-28.9-10h-41.9c-0.1,0-0.2,0-0.2-0.1l-47-23c-0.2-0.1-0.4-0.4-0.2-0.7
	c0.1-0.2,0.4-0.4,0.7-0.2l46.9,22.9h41.9c0.1,0,0.1,0,0.2,0l29,10c0.3,0.1,0.4,0.4,0.3,0.6C606.9,481.3,606.7,481.4,606.5,481.4z"/>
<linearGradient id="SVGID_55_" gradientUnits="userSpaceOnUse" x1="895.7609" y1="60.9284" x2="895.7609" y2="594.3746">
	<stop  offset="0" style="stop-color:#FFFFFF"/>
	<stop  offset="1" style="stop-color:#000000"/>
</linearGradient>
<path class="st54" d="M1171,509.1C1171,509.1,1171,509.1,1171,509.1l-87.5-1.8c0,0-0.1,0-0.1,0l-27-7l-39-14l-40.9-5
	c-0.1,0-0.1,0-0.2-0.1l-21.9-13l-16.9-3l-66.8-5l-14.9,6.9c0,0-0.1,0-0.1,0l-22,3l-26,0l-42.9,9c0,0-0.1,0-0.2,0l-19.9-2l-34.9,6
	c0,0-0.1,0-0.1,0l-27-3l-34.9,0l-26.9,6c-0.3,0.1-0.5-0.1-0.6-0.4c-0.1-0.3,0.1-0.5,0.4-0.6l27-6c0,0,0.1,0,0.1,0h35l27,3l34.9-6
	c0,0,0.1,0,0.1,0l19.9,2l42.9-9c0,0,0.1,0,0.1,0h26l21.9-3l14.9-7c0.1,0,0.2-0.1,0.2,0l67,5l17,3c0.1,0,0.1,0,0.2,0.1l21.9,12.9
	l40.9,5c0,0,0.1,0,0.1,0l39,14l26.9,7l87.4,1.8c0.3,0,0.5,0.2,0.5,0.5C1171.5,508.9,1171.3,509.1,1171,509.1z"/>
<linearGradient id="SVGID_56_" gradientUnits="userSpaceOnUse" x1="1300.0256" y1="60.9284" x2="1300.0256" y2="594.3746">
	<stop  offset="0" style="stop-color:#FFFFFF"/>
	<stop  offset="1" style="stop-color:#000000"/>
</linearGradient>
<path class="st55" d="M1288.5,510.4C1288.5,510.4,1288.5,510.4,1288.5,510.4l-57-3c-0.3,0-0.5-0.2-0.5-0.5c0-0.3,0.3-0.5,0.5-0.5
	l56.9,3l41.9-8l38-9c0.3-0.1,0.5,0.1,0.6,0.4s-0.1,0.5-0.4,0.6l-38,9L1288.5,510.4C1288.6,510.4,1288.6,510.4,1288.5,510.4z"/>
<linearGradient id="SVGID_57_" gradientUnits="userSpaceOnUse" x1="1446.5255" y1="60.9284" x2="1446.5255" y2="594.3746">
	<stop  offset="0" style="stop-color:#FFFFFF"/>
	<stop  offset="1" style="stop-color:#000000"/>
</linearGradient>
<path class="st56" d="M1394.5,491.4c-0.2,0-0.4-0.1-0.4-0.3c-0.1-0.2,0-0.5,0.2-0.7l104-52c0.2-0.1,0.5,0,0.7,0.2
	c0.1,0.2,0,0.5-0.2,0.7l-104,52C1394.7,491.4,1394.6,491.4,1394.5,491.4z"/>
<linearGradient id="SVGID_58_" gradientUnits="userSpaceOnUse" x1="1550.5255" y1="60.9284" x2="1550.5255" y2="594.3746">
	<stop  offset="0" style="stop-color:#FFFFFF"/>
	<stop  offset="1" style="stop-color:#000000"/>
</linearGradient>
<path class="st57" d="M1518.5,439.4c-0.2,0-0.4-0.1-0.4-0.3c-0.1-0.2,0-0.5,0.2-0.7l20-10c0,0,0.1,0,0.1,0l22-4l22.1,0
	c0.3,0,0.5,0.2,0.5,0.5s-0.2,0.5-0.5,0.5h-22l-21.8,4l-19.9,10C1518.7,439.4,1518.6,439.4,1518.5,439.4z"/>
<linearGradient id="SVGID_59_" gradientUnits="userSpaceOnUse" x1="626.6536" y1="60.9284" x2="626.6536" y2="594.3746">
	<stop  offset="0" style="stop-color:#FFFFFF"/>
	<stop  offset="1" style="stop-color:#000000"/>
</linearGradient>
<path class="st58" d="M1184.4,517C1184.4,517,1184.4,517,1184.4,517l-123.9-4.6c0,0-0.1,0-0.1,0l-83-23l-20.1-9l-22.9-7l-26.9,2
	c0,0-0.1,0-0.1,0l-36.9-6l-81.9,11l-44.9,3l-20.9,9c-0.1,0-0.2,0-0.2,0l-58-5l-19.9,0l-26.9,6c0,0-0.1,0-0.1,0l-22-1
	c0,0-0.1,0-0.1,0l-24-8l-15.9-3l-28.9,0c0,0-0.1,0-0.1,0l-17-5l-39-9l-43.9-4l-20.9,4c-0.1,0-0.1,0-0.2,0c-8.8-1.6-22.1-4-22.9-4
	c-0.1,0-0.2,0-0.3-0.1L366,451.8l-38.5,1.6l-17,0l-26.9,5l-46,0l-22.8,6.9l-19.9,17.9c-0.1,0.1-0.2,0.1-0.3,0.1L89.9,494l-20.9,7.5
	c-0.3,0.1-0.5,0-0.6-0.3c-0.1-0.3,0-0.5,0.3-0.6l20.9-7.6c0,0,0.1,0,0.1,0l104.6-10.6l19.9-17.9c0.1,0,0.1-0.1,0.2-0.1l23-7
	c0,0,0.1,0,0.1,0h46l26.9-5l17.1,0l38.6-1.6c0.1,0,0.2,0,0.3,0.1l16.3,11.5c2.2,0.2,20.3,3.5,22.8,4l20.9-4c0,0,0.1,0,0.1,0l44,4
	l39.1,9l17,5h28.9l16.1,3l24,8l21.9,1l26.9-6c0,0,0.1,0,0.1,0h20l57.9,5l20.9-9c0.1,0,0.1,0,0.2,0l45-3l82-11c0,0,0.1,0,0.1,0
	l36.9,6l26.9-2c0.1,0,0.1,0,0.2,0l23,7l20.1,9l82.9,23l123.8,4.6c0.3,0,0.5,0.2,0.5,0.5C1184.9,516.8,1184.7,517,1184.4,517z"/>
<linearGradient id="SVGID_60_" gradientUnits="userSpaceOnUse" x1="1410.0667" y1="60.9284" x2="1410.0667" y2="594.3746">
	<stop  offset="0" style="stop-color:#FFFFFF"/>
	<stop  offset="1" style="stop-color:#000000"/>
</linearGradient>
<path class="st59" d="M1269.6,524.1c-0.3,0-0.5-0.2-0.5-0.5c0-0.3,0.2-0.5,0.5-0.5l92.9-4.7l41.9-10l39.9-16l42-12l25.9-13
	c0,0,0.1,0,0.1,0l38-10c0.3-0.1,0.5,0.1,0.6,0.4c0.1,0.3-0.1,0.5-0.4,0.6l-37.9,10l-26,13l-42.1,12l-40,16l-42.1,10L1269.6,524.1
	C1269.6,524.1,1269.6,524.1,1269.6,524.1z"/>
<linearGradient id="SVGID_61_" gradientUnits="userSpaceOnUse" x1="1321.0255" y1="60.9284" x2="1321.0255" y2="594.3746">
	<stop  offset="0" style="stop-color:#FFFFFF"/>
	<stop  offset="1" style="stop-color:#000000"/>
</linearGradient>
<path class="st60" d="M1304.5,516.4c-0.2,0-0.5-0.2-0.5-0.4c0-0.3,0.1-0.5,0.4-0.6l33-5c0.3,0,0.5,0.1,0.6,0.4
	c0,0.3-0.1,0.5-0.4,0.6L1304.5,516.4C1304.6,516.4,1304.5,516.4,1304.5,516.4z"/>
<linearGradient id="SVGID_62_" gradientUnits="userSpaceOnUse" x1="1368.0255" y1="60.9284" x2="1368.0255" y2="594.3746">
	<stop  offset="0" style="stop-color:#FFFFFF"/>
	<stop  offset="1" style="stop-color:#000000"/>
</linearGradient>
<path class="st61" d="M1359.5,508.4c-0.2,0-0.4-0.2-0.5-0.4c-0.1-0.3,0.1-0.5,0.4-0.6l17-4c0.3-0.1,0.5,0.1,0.6,0.4
	c0.1,0.3-0.1,0.5-0.4,0.6l-17,4C1359.6,508.4,1359.6,508.4,1359.5,508.4z"/>
<linearGradient id="SVGID_63_" gradientUnits="userSpaceOnUse" x1="1471.5255" y1="60.9284" x2="1471.5255" y2="594.3746">
	<stop  offset="0" style="stop-color:#FFFFFF"/>
	<stop  offset="1" style="stop-color:#000000"/>
</linearGradient>
<path class="st62" d="M1400.5,501.4c-0.2,0-0.4-0.1-0.5-0.3c-0.1-0.3,0-0.5,0.3-0.7l39-17l25-6l39.9-24c0,0,0.1,0,0.1,0l38-12
	c0.3-0.1,0.5,0.1,0.6,0.3s-0.1,0.5-0.3,0.6l-37.9,12l-40,24c0,0-0.1,0-0.1,0.1l-25,6l-38.9,17
	C1400.7,501.4,1400.6,501.4,1400.5,501.4z"/>
<linearGradient id="SVGID_64_" gradientUnits="userSpaceOnUse" x1="1630.0255" y1="60.9284" x2="1630.0255" y2="594.3746">
	<stop  offset="0" style="stop-color:#FFFFFF"/>
	<stop  offset="1" style="stop-color:#000000"/>
</linearGradient>
<path class="st63" d="M1568.5,437.4c-0.2,0-0.4-0.2-0.5-0.4c-0.1-0.3,0.1-0.5,0.4-0.6l41-10c0.1,0,0.2,0,0.3,0l18.9,6l62.9,3
	c0.3,0,0.5,0.2,0.5,0.5c0,0.3-0.3,0.5-0.5,0.5l-63-3c0,0-0.1,0-0.1,0l-18.9-6l-40.9,10C1568.6,437.4,1568.6,437.4,1568.5,437.4z"/>
<linearGradient id="SVGID_65_" gradientUnits="userSpaceOnUse" x1="222.5537" y1="60.9284" x2="222.5537" y2="594.3746">
	<stop  offset="0" style="stop-color:#FFFFFF"/>
	<stop  offset="1" style="stop-color:#000000"/>
</linearGradient>
<path class="st64" d="M147.6,493.5c-0.3,0-0.5-0.2-0.5-0.5c0-0.3,0.2-0.5,0.5-0.5l41.1-2.9l20.6-12.1c0.1,0,0.1-0.1,0.2-0.1l38.9-6
	l25.9-10c0.1,0,0.1,0,0.2,0h23c0.3,0,0.5,0.2,0.5,0.5s-0.2,0.5-0.5,0.5h-22.9l-25.9,10c0,0-0.1,0-0.1,0l-38.9,6L189,490.5
	c-0.1,0-0.1,0.1-0.2,0.1L147.6,493.5C147.6,493.5,147.6,493.5,147.6,493.5z"/>
<linearGradient id="SVGID_66_" gradientUnits="userSpaceOnUse" x1="421.0255" y1="60.9284" x2="421.0255" y2="594.3746">
	<stop  offset="0" style="stop-color:#FFFFFF"/>
	<stop  offset="1" style="stop-color:#000000"/>
</linearGradient>
<path class="st65" d="M524.5,494.4C524.5,494.4,524.5,494.4,524.5,494.4l-42.1-7l-37-13l-42.8,2l-20.9,7c-0.1,0-0.1,0-0.2,0l-24-3
	c0,0-0.1,0-0.1,0l-40-16c-0.3-0.1-0.4-0.4-0.3-0.6c0.1-0.3,0.4-0.4,0.6-0.3l39.9,16l23.8,3l20.9-7c0,0,0.1,0,0.1,0l43-2
	c0.1,0,0.1,0,0.2,0l37,13l41.9,7c0.3,0,0.5,0.3,0.4,0.6C525,494.2,524.8,494.4,524.5,494.4z"/>
<linearGradient id="SVGID_67_" gradientUnits="userSpaceOnUse" x1="921.0256" y1="60.9284" x2="921.0256" y2="594.3746">
	<stop  offset="0" style="stop-color:#FFFFFF"/>
	<stop  offset="1" style="stop-color:#000000"/>
</linearGradient>
<path class="st66" d="M1206.1,526.3C1206.1,526.3,1206.1,526.3,1206.1,526.3l-117.6-4.9l-51.1-8l-64-16l-33-13h-34.9
	c0,0-0.1,0-0.1,0l-34.9-8l-42.9,8c0,0-0.1,0-0.1,0c-0.2,0-22-1-23-1c-0.9,0-28.4,2.6-42.9,4l-38.9,13c-0.1,0-0.1,0-0.2,0l-68-3
	l-38.9,6c0,0-0.1,0-0.1,0c-0.2,0-18-2-19.9-2c-0.3,0-0.5-0.2-0.5-0.5s0.2-0.5,0.5-0.5c2,0,18.6,1.8,20,2l38.9-6l68,3l38.9-13
	c0,0,0.1,0,0.1,0c1.7-0.2,42-4,43-4c1,0,21.5,0.9,23,1l42.9-8c0.1,0,0.1,0,0.2,0l34.9,8h34.9c0.1,0,0.1,0,0.2,0l33,13l63.9,16l51,8
	l117.4,4.9l18.6-7.6c0.1,0,0.1,0,0.2,0l21.8-0.3c0,0,0,0,0,0c0.3,0,0.5,0.2,0.5,0.5c0,0.3-0.2,0.5-0.5,0.5l-21.7,0.3l-18.6,7.6
	C1206.2,526.3,1206.2,526.3,1206.1,526.3z"/>
<linearGradient id="SVGID_68_" gradientUnits="userSpaceOnUse" x1="1426.1547" y1="60.9284" x2="1426.1547" y2="594.3746">
	<stop  offset="0" style="stop-color:#FFFFFF"/>
	<stop  offset="1" style="stop-color:#000000"/>
</linearGradient>
<path class="st67" d="M1297.8,527.4c-0.3,0-0.5-0.2-0.5-0.5c0-0.3,0.2-0.5,0.5-0.5l66.7-3l43-6l61.9-21l45.1-9l39.9-15
	c0.3-0.1,0.5,0,0.6,0.3c0.1,0.3,0,0.5-0.3,0.6l-40,15l-45.1,9l-61.9,21l-43.1,6L1297.8,527.4
	C1297.8,527.4,1297.8,527.4,1297.8,527.4z"/>
<linearGradient id="SVGID_69_" gradientUnits="userSpaceOnUse" x1="1609.0254" y1="60.9284" x2="1609.0254" y2="594.3746">
	<stop  offset="0" style="stop-color:#FFFFFF"/>
	<stop  offset="1" style="stop-color:#000000"/>
</linearGradient>
<path class="st68" d="M1578.5,471.4c-0.2,0-0.4-0.2-0.5-0.4c-0.1-0.3,0.1-0.5,0.4-0.6l26-5l35-10c0.3-0.1,0.5,0.1,0.6,0.3
	c0.1,0.3-0.1,0.5-0.3,0.6l-35,10L1578.5,471.4C1578.6,471.4,1578.6,471.4,1578.5,471.4z"/>
<linearGradient id="SVGID_70_" gradientUnits="userSpaceOnUse" x1="1636.5256" y1="60.9284" x2="1636.5256" y2="594.3746">
	<stop  offset="0" style="stop-color:#FFFFFF"/>
	<stop  offset="1" style="stop-color:#000000"/>
</linearGradient>
<path class="st69" d="M1573.5,454.4c-0.3,0-0.5-0.2-0.5-0.5s0.2-0.5,0.5-0.5c0.8,0,20.3-2.2,27.9-3l30.9-11c0.1,0,0.1,0,0.2,0h27
	c0,0,0.1,0,0.1,0l40,10c0.3,0.1,0.4,0.3,0.4,0.6c-0.1,0.3-0.3,0.4-0.6,0.4l-39.9-10h-26.9l-30.9,11c0,0-0.1,0-0.1,0
	C1600.5,451.5,1574.5,454.4,1573.5,454.4z"/>
<linearGradient id="SVGID_71_" gradientUnits="userSpaceOnUse" x1="1684.0255" y1="60.9284" x2="1684.0255" y2="594.3746">
	<stop  offset="0" style="stop-color:#FFFFFF"/>
	<stop  offset="1" style="stop-color:#000000"/>
</linearGradient>
<path class="st70" d="M1704.5,463.4C1704.5,463.4,1704.5,463.4,1704.5,463.4l-18.1-2l-23.1-7c-0.3-0.1-0.4-0.4-0.3-0.6
	c0.1-0.3,0.4-0.4,0.6-0.3l23,7l17.9,2c0.3,0,0.5,0.3,0.4,0.6C1705,463.2,1704.8,463.4,1704.5,463.4z"/>
<linearGradient id="SVGID_72_" gradientUnits="userSpaceOnUse" x1="253.8878" y1="60.9284" x2="253.8878" y2="594.3746">
	<stop  offset="0" style="stop-color:#FFFFFF"/>
	<stop  offset="1" style="stop-color:#000000"/>
</linearGradient>
<path class="st71" d="M154.3,497.1c-0.3,0-0.5-0.2-0.5-0.5c0-0.3,0.2-0.5,0.5-0.5l29.2-0.7l19.9-9l43.1-11l21-5c0,0,0.1,0,0.1,0h29
	c1,0,44,16.1,57.2,21c0.3,0.1,0.4,0.4,0.3,0.6c-0.1,0.3-0.4,0.4-0.6,0.3c-15.3-5.7-55.4-20.7-56.9-21l-28.9,0l-20.9,5l-43,11
	l-19.9,9c-0.1,0-0.1,0-0.2,0L154.3,497.1C154.3,497.1,154.3,497.1,154.3,497.1z"/>
<linearGradient id="SVGID_73_" gradientUnits="userSpaceOnUse" x1="407.5255" y1="60.9284" x2="407.5255" y2="594.3746">
	<stop  offset="0" style="stop-color:#FFFFFF"/>
	<stop  offset="1" style="stop-color:#000000"/>
</linearGradient>
<path class="st72" d="M376.5,493.4c-0.3,0-0.5-0.2-0.5-0.5c0-0.3,0.2-0.5,0.5-0.5c1.1,0,41-5.2,61.9-8c0.3,0,0.5,0.2,0.6,0.4
	c0,0.3-0.2,0.5-0.4,0.6C432.3,486.2,377.5,493.4,376.5,493.4z"/>
<linearGradient id="SVGID_74_" gradientUnits="userSpaceOnUse" x1="471.5323" y1="60.9284" x2="471.5323" y2="594.3746">
	<stop  offset="0" style="stop-color:#FFFFFF"/>
	<stop  offset="1" style="stop-color:#000000"/>
</linearGradient>
<path class="st73" d="M480.5,494.4c-0.1,0-0.1,0-0.2,0c-6.4-2.3-17-5.9-17.8-6c-0.3,0-0.5-0.2-0.5-0.5s0.2-0.5,0.5-0.5
	c1,0,15.3,5,18.2,6c0.3,0.1,0.4,0.4,0.3,0.6C480.9,494.3,480.7,494.4,480.5,494.4z"/>
<linearGradient id="SVGID_75_" gradientUnits="userSpaceOnUse" x1="538.0255" y1="60.9284" x2="538.0255" y2="594.3746">
	<stop  offset="0" style="stop-color:#FFFFFF"/>
	<stop  offset="1" style="stop-color:#000000"/>
</linearGradient>
<path class="st74" d="M545.5,504.4C545.5,504.4,545.5,504.4,545.5,504.4l-15.1-2c-0.3,0-0.5-0.3-0.4-0.6c0-0.3,0.3-0.5,0.6-0.4l15,2
	c0.3,0,0.5,0.3,0.4,0.6C546,504.2,545.8,504.4,545.5,504.4z"/>
<linearGradient id="SVGID_76_" gradientUnits="userSpaceOnUse" x1="909.9579" y1="60.9284" x2="909.9579" y2="594.3746">
	<stop  offset="0" style="stop-color:#FFFFFF"/>
	<stop  offset="1" style="stop-color:#000000"/>
</linearGradient>
<path class="st75" d="M1206.4,533C1206.4,533,1206.4,533,1206.4,533l-119.9-5.6l-47-7l-62-15l-35-10h-29.9c0,0-0.1,0-0.1,0l-37.9-8
	l-45.9,3l-24,0l-102.9,17c0,0-0.1,0-0.1,0l-25-2l-62.9,5c-0.3,0-0.5-0.2-0.5-0.5s0.2-0.5,0.5-0.5l63-5l25,2l102.9-17l24.1,0l46-3
	c0,0,0.1,0,0.1,0l37.9,8h29.9c0,0,0.1,0,0.1,0l35,10l62,15l47,7l119.8,5.6c0.3,0,0.5,0.2,0.5,0.5
	C1206.9,532.8,1206.7,533,1206.4,533z"/>
<linearGradient id="SVGID_77_" gradientUnits="userSpaceOnUse" x1="1440.5537" y1="60.9284" x2="1440.5537" y2="594.3746">
	<stop  offset="0" style="stop-color:#FFFFFF"/>
	<stop  offset="1" style="stop-color:#000000"/>
</linearGradient>
<path class="st76" d="M1317.6,532.7c-0.3,0-0.5-0.2-0.5-0.5c0-0.3,0.2-0.5,0.5-0.5l58.9-5.3l40-6l35.9-11l74.1-13l37-9
	c0.3-0.1,0.5,0.1,0.6,0.4c0.1,0.3-0.1,0.5-0.4,0.6l-37,9l-74,13l-35.9,11l-40.1,6L1317.6,532.7
	C1317.6,532.7,1317.6,532.7,1317.6,532.7z"/>
<linearGradient id="SVGID_78_" gradientUnits="userSpaceOnUse" x1="1593.5255" y1="60.9284" x2="1593.5255" y2="594.3746">
	<stop  offset="0" style="stop-color:#FFFFFF"/>
	<stop  offset="1" style="stop-color:#000000"/>
</linearGradient>
<path class="st77" d="M1582.5,486.4c-0.2,0-0.4-0.2-0.5-0.4c-0.1-0.3,0.1-0.5,0.4-0.6l22-5c0.3-0.1,0.5,0.1,0.6,0.4
	c0.1,0.3-0.1,0.5-0.4,0.6l-22,5C1582.6,486.4,1582.6,486.4,1582.5,486.4z"/>
<linearGradient id="SVGID_79_" gradientUnits="userSpaceOnUse" x1="1668.5258" y1="60.9284" x2="1668.5258" y2="594.3746">
	<stop  offset="0" style="stop-color:#FFFFFF"/>
	<stop  offset="1" style="stop-color:#000000"/>
</linearGradient>
<path class="st78" d="M1710.5,480.4C1710.5,480.4,1710.5,480.4,1710.5,480.4l-41.1-6l-17.9-1c-6.4,1.4-23.2,5.1-24.8,5.9
	c-0.2,0.1-0.5,0-0.7-0.2c-0.1-0.2,0-0.5,0.2-0.7c2-1,24.2-5.8,25.1-6c0,0,0.1,0,0.1,0l18,1l41,6c0.3,0,0.5,0.3,0.4,0.6
	C1711,480.2,1710.8,480.4,1710.5,480.4z"/>
<linearGradient id="SVGID_80_" gradientUnits="userSpaceOnUse" x1="287.5508" y1="60.9284" x2="287.5508" y2="594.3746">
	<stop  offset="0" style="stop-color:#FFFFFF"/>
	<stop  offset="1" style="stop-color:#000000"/>
</linearGradient>
<path class="st79" d="M175.5,503.4C175.5,503.4,175.5,503.4,175.5,503.4l-15-1.9c-0.3,0-0.5-0.3-0.4-0.6s0.3-0.5,0.6-0.4l14.8,1.8
	c2.2-1.4,16.9-6.8,20-7.9l44.1-9c1.8-0.1,43.1-2,45.1-2c2,0,61.6,13.4,64.1,14l23.9,2l41.9-3c0.3,0,0.5,0.2,0.5,0.5
	c0,0.3-0.2,0.5-0.5,0.5l-42,3l-24.1-2c-17.3-3.9-62.3-14-64-14c-2,0-44.5,2-45,2l-43.9,9c-7.2,2.6-18.9,7.1-19.7,7.9
	C175.8,503.3,175.6,503.4,175.5,503.4z"/>
<linearGradient id="SVGID_81_" gradientUnits="userSpaceOnUse" x1="499.5256" y1="60.9284" x2="499.5256" y2="594.3746">
	<stop  offset="0" style="stop-color:#FFFFFF"/>
	<stop  offset="1" style="stop-color:#000000"/>
</linearGradient>
<path class="st80" d="M562.5,515.4C562.5,515.4,562.5,515.4,562.5,515.4l-66.1-10l-29-7l-30.9,1c-0.3,0-0.5-0.2-0.5-0.5
	c0-0.3,0.2-0.5,0.5-0.5l31-1c0,0,0.1,0,0.1,0l29,7l66,10c0.3,0,0.5,0.3,0.4,0.6C563,515.2,562.8,515.4,562.5,515.4z"/>
<linearGradient id="SVGID_82_" gradientUnits="userSpaceOnUse" x1="923.9138" y1="60.9284" x2="923.9138" y2="594.3746">
	<stop  offset="0" style="stop-color:#FFFFFF"/>
	<stop  offset="1" style="stop-color:#000000"/>
</linearGradient>
<path class="st81" d="M1257.3,539.2C1257.3,539.2,1257.3,539.2,1257.3,539.2l-115.8-3.8l-59-5l-49-8l-56-8l-38-13h-36.9l-33-5
	l-30.9,4l-56,4l-24-3l-63.9,11l-22.1,1c-31.7,1.2-79.5,3.2-81.8,3.9c-0.2,0.1-0.4,0.1-0.6-0.1c-0.2-0.2-0.2-0.5,0-0.7
	c1-1,52-3,82.3-4.1l22-1l63.9-11c0,0,0.1,0,0.1,0l24,3l55.9-4l31-4c0,0,0.1,0,0.1,0l33,5l36.9,0c0.1,0,0.1,0,0.2,0l38,13l55.9,8
	l49,8l59,5l115.8,3.8c0.3,0,0.5,0.2,0.5,0.5C1257.8,539,1257.6,539.2,1257.3,539.2z"/>
<linearGradient id="SVGID_83_" gradientUnits="userSpaceOnUse" x1="1444.5258" y1="60.9284" x2="1444.5258" y2="594.3746">
	<stop  offset="0" style="stop-color:#FFFFFF"/>
	<stop  offset="1" style="stop-color:#000000"/>
</linearGradient>
<path class="st82" d="M1325.5,536.4c-0.3,0-0.5-0.2-0.5-0.4c0-0.3,0.2-0.5,0.4-0.5l58-6l75-14l85-9l19.9-9c0.2-0.1,0.5,0,0.7,0.3
	c0.1,0.3,0,0.5-0.3,0.7l-20,9c0,0-0.1,0-0.2,0l-85,9l-75,14L1325.5,536.4C1325.6,536.4,1325.5,536.4,1325.5,536.4z"/>
<linearGradient id="SVGID_84_" gradientUnits="userSpaceOnUse" x1="1675.0255" y1="60.9284" x2="1675.0255" y2="594.3746">
	<stop  offset="0" style="stop-color:#FFFFFF"/>
	<stop  offset="1" style="stop-color:#000000"/>
</linearGradient>
<path class="st83" d="M1694.5,494.4C1694.5,494.4,1694.5,494.4,1694.5,494.4l-39-3c-0.3,0-0.5-0.3-0.5-0.5c0-0.3,0.3-0.5,0.5-0.5
	l39,3c0.3,0,0.5,0.3,0.5,0.5C1695,494.2,1694.8,494.4,1694.5,494.4z"/>
<linearGradient id="SVGID_85_" gradientUnits="userSpaceOnUse" x1="257.3209" y1="60.9284" x2="257.3209" y2="594.3746">
	<stop  offset="0" style="stop-color:#FFFFFF"/>
	<stop  offset="1" style="stop-color:#000000"/>
</linearGradient>
<path class="st84" d="M170.5,509.4C170.5,509.4,170.5,509.4,170.5,509.4l-41.4-0.7c-0.3,0-0.5-0.2-0.5-0.5c0-0.3,0.2-0.5,0.5-0.5
	c0,0,0,0,0,0l41.4,0.7l23.9-5l19.1-1l30.9-6c0,0,0.1,0,0.1,0l66,6l33.9-2c0,0,0.1,0,0.1,0l28,4l12.9,0c0.3,0,0.5,0.2,0.5,0.5
	s-0.2,0.5-0.5,0.5h-13l-28-4l-33.9,2l-66-6l-30.9,6l-19.1,1l-23.9,5C170.6,509.4,170.6,509.4,170.5,509.4z"/>
<linearGradient id="SVGID_86_" gradientUnits="userSpaceOnUse" x1="820.3141" y1="60.9284" x2="820.3141" y2="594.3746">
	<stop  offset="0" style="stop-color:#FFFFFF"/>
	<stop  offset="1" style="stop-color:#000000"/>
</linearGradient>
<path class="st85" d="M1210.1,542.7C1210.1,542.7,1210.1,542.7,1210.1,542.7l-116.6-7.4l-38-5l-51-5l-59-13h-30.9l-44-5l-36.9,4
	l-49,2l-49,1l-66,4l-74,4l-41,0l-36.1-4l-62-14h-25.9c-0.3,0-0.5-0.2-0.5-0.5c0-0.3,0.2-0.5,0.5-0.5h26c0,0,0.1,0,0.1,0l62,14
	l35.9,4l40.9,0l74-4l66-4l49-1l49-2l37-4c0,0,0.1,0,0.1,0l44,5l30.9,0c0,0,0.1,0,0.1,0l59,13l50.9,5l38,5l116.5,7.4
	c0.3,0,0.5,0.3,0.5,0.5C1210.6,542.5,1210.4,542.7,1210.1,542.7z"/>
<linearGradient id="SVGID_87_" gradientUnits="userSpaceOnUse" x1="272.764" y1="60.9284" x2="272.764" y2="594.3746">
	<stop  offset="0" style="stop-color:#FFFFFF"/>
	<stop  offset="1" style="stop-color:#000000"/>
</linearGradient>
<path class="st86" d="M118,516.7c-0.3,0-0.5-0.2-0.5-0.5c0-0.3,0.2-0.5,0.5-0.5l44.5-1.4l22.9-6l45.1-4l67,6l43.9-6
	c0.1,0,0.1,0,0.2,0l41,7l44.9-1c0,0,0,0,0,0c0.3,0,0.5,0.2,0.5,0.5c0,0.3-0.2,0.5-0.5,0.5l-45,1l-41-7l-43.9,6c0,0-0.1,0-0.1,0
	l-67-6l-44.9,4l-22.9,6c0,0-0.1,0-0.1,0L118,516.7C118,516.7,118,516.7,118,516.7z"/>
<linearGradient id="SVGID_88_" gradientUnits="userSpaceOnUse" x1="491.0273" y1="60.9284" x2="491.0273" y2="594.3746">
	<stop  offset="0" style="stop-color:#FFFFFF"/>
	<stop  offset="1" style="stop-color:#000000"/>
</linearGradient>
<path class="st87" d="M535.5,525.4C535.5,525.4,535.5,525.4,535.5,525.4l-42.1-7c-15.8-1.7-46-5-46.9-5c-0.3,0-0.5-0.2-0.5-0.5
	s0.2-0.5,0.5-0.5c1,0,45.2,4.8,47.1,5l42,7c0.3,0,0.5,0.3,0.4,0.6C536,525.2,535.8,525.4,535.5,525.4z"/>
<linearGradient id="SVGID_89_" gradientUnits="userSpaceOnUse" x1="188.3738" y1="60.9284" x2="188.3738" y2="594.3746">
	<stop  offset="0" style="stop-color:#FFFFFF"/>
	<stop  offset="1" style="stop-color:#000000"/>
</linearGradient>
<path class="st88" d="M67.2,526.3c-0.3,0-0.5-0.2-0.5-0.5c0-0.3,0.2-0.5,0.5-0.5l44.8-2.7l44.5-0.2l23.9-7c0,0,0.1,0,0.1,0l65-4
	c0.1,0,0.2,0,0.2,0l16.9,7l22.9,3l23.9-2c0.3,0,0.5,0.2,0.5,0.5c0,0.3-0.2,0.5-0.5,0.5l-24,2c0,0-0.1,0-0.1,0l-23-3c0,0-0.1,0-0.1,0
	l-16.9-7l-64.8,4l-23.9,7c0,0-0.1,0-0.1,0l-44.5,0.2L67.2,526.3C67.2,526.3,67.2,526.3,67.2,526.3z"/>
<linearGradient id="SVGID_90_" gradientUnits="userSpaceOnUse" x1="401.0285" y1="60.9284" x2="401.0285" y2="594.3746">
	<stop  offset="0" style="stop-color:#FFFFFF"/>
	<stop  offset="1" style="stop-color:#000000"/>
</linearGradient>
<path class="st89" d="M542.6,535.4l-85.3-1.2l-93.7,0.2h-17l-33.5-1.7l-73.5-14.3l-66.9,3c-8,2.7-20.9,7.1-21.7,7.9
	c-0.2,0.2-0.5,0.2-0.7,0c-0.2-0.2-0.2-0.5,0-0.7c1-1,18.7-6.9,22.2-8.1c0,0,0.1,0,0.1,0l67-3c0,0,0.1,0,0.1,0l73.5,14.3l33.4,1.7
	l17,0l93.7-0.2l85.3,1.2l83-5l25.9-6c0.3-0.1,0.5,0.1,0.6,0.4c0.1,0.3-0.1,0.5-0.4,0.6l-26,6L542.6,535.4z"/>
<linearGradient id="SVGID_91_" gradientUnits="userSpaceOnUse" x1="187.0523" y1="60.9284" x2="187.0523" y2="594.3746">
	<stop  offset="0" style="stop-color:#FFFFFF"/>
	<stop  offset="1" style="stop-color:#000000"/>
</linearGradient>
<path class="st90" d="M357.1,542C357,542,357,542,357.1,542l-53-4.7l-73.5-11.9l-65.9,3l-21.9,6c-0.1,0-0.2,0-0.3,0l-18.7-7.1
	l-53.7,4l-52.9,1.2c0,0,0,0,0,0c-0.3,0-0.5-0.2-0.5-0.5c0-0.3,0.2-0.5,0.5-0.5l52.9-1.2l53.7-4c0.1,0,0.1,0,0.2,0l18.7,7.1l21.8-6
	c0,0,0.1,0,0.1,0l66-3c0,0,0.1,0,0.1,0l73.5,11.9l53,4.6c0.3,0,0.5,0.3,0.5,0.5C357.5,541.8,357.3,542,357.1,542z"/>
<linearGradient id="SVGID_92_" gradientUnits="userSpaceOnUse" x1="359.5255" y1="60.9284" x2="359.5255" y2="594.3746">
	<stop  offset="0" style="stop-color:#FFFFFF"/>
	<stop  offset="1" style="stop-color:#000000"/>
</linearGradient>
<path class="st91" d="M305.5,527.4c-0.3,0-0.5-0.2-0.5-0.5c0-0.3,0.2-0.5,0.5-0.5l25-1l43-3l40.1,3c0.3,0,0.5,0.3,0.5,0.5
	c0,0.3-0.3,0.5-0.5,0.5l-40-3l-42.9,3L305.5,527.4C305.5,527.4,305.5,527.4,305.5,527.4z"/>
<linearGradient id="SVGID_93_" gradientUnits="userSpaceOnUse" x1="351.5256" y1="60.9284" x2="351.5256" y2="594.3746">
	<stop  offset="0" style="stop-color:#FFFFFF"/>
	<stop  offset="1" style="stop-color:#000000"/>
</linearGradient>
<path class="st92" d="M413.5,519.4C413.5,519.4,413.5,519.4,413.5,519.4l-77-7l-46.9,2c-0.3,0-0.5-0.2-0.5-0.5s0.2-0.5,0.5-0.5l47-2
	l77.1,7c0.3,0,0.5,0.3,0.5,0.5C414,519.2,413.8,519.4,413.5,519.4z"/>
<linearGradient id="SVGID_94_" gradientUnits="userSpaceOnUse" x1="480.5255" y1="60.9284" x2="480.5255" y2="594.3746">
	<stop  offset="0" style="stop-color:#FFFFFF"/>
	<stop  offset="1" style="stop-color:#000000"/>
</linearGradient>
<path class="st93" d="M515.5,528.4C515.5,528.4,515.5,528.4,515.5,528.4l-70.1-10c-0.3,0-0.5-0.3-0.4-0.6c0-0.3,0.3-0.5,0.6-0.4
	l70,10c0.3,0,0.5,0.3,0.4,0.6C516,528.2,515.8,528.4,515.5,528.4z"/>
<linearGradient id="SVGID_95_" gradientUnits="userSpaceOnUse" x1="497.7272" y1="60.9284" x2="497.7272" y2="594.3746">
	<stop  offset="0" style="stop-color:#FFFFFF"/>
	<stop  offset="1" style="stop-color:#000000"/>
</linearGradient>
<path class="st94" d="M528.9,534.5C528.9,534.5,528.9,534.5,528.9,534.5l-62.5-7.2c-0.3,0-0.5-0.3-0.4-0.6c0-0.3,0.3-0.5,0.6-0.4
	l62.4,7.2c0.3,0,0.5,0.3,0.4,0.6C529.4,534.4,529.2,534.5,528.9,534.5z"/>
<linearGradient id="SVGID_96_" gradientUnits="userSpaceOnUse" x1="726.0255" y1="60.9284" x2="726.0255" y2="594.3746">
	<stop  offset="0" style="stop-color:#FFFFFF"/>
	<stop  offset="1" style="stop-color:#000000"/>
</linearGradient>
<path class="st95" d="M651.5,524.4c-0.3,0-0.5-0.2-0.5-0.5c0-0.3,0.2-0.5,0.5-0.5l149-4c0.2,0,0.5,0.2,0.5,0.5
	c0,0.3-0.2,0.5-0.5,0.5L651.5,524.4C651.5,524.4,651.5,524.4,651.5,524.4z"/>
<linearGradient id="SVGID_97_" gradientUnits="userSpaceOnUse" x1="960.5254" y1="60.9284" x2="960.5254" y2="594.3746">
	<stop  offset="0" style="stop-color:#FFFFFF"/>
	<stop  offset="1" style="stop-color:#000000"/>
</linearGradient>
<path class="st96" d="M1054.5,534.4C1054.5,534.4,1054.5,534.4,1054.5,534.4l-70-6l-38-6l-79.9-4c-0.3,0-0.5-0.2-0.5-0.5
	c0-0.3,0.3-0.5,0.5-0.5l80,4l38.1,6l70,6c0.3,0,0.5,0.3,0.5,0.5C1055,534.2,1054.8,534.4,1054.5,534.4z"/>
<linearGradient id="SVGID_98_" gradientUnits="userSpaceOnUse" x1="1411.2214" y1="60.9284" x2="1411.2214" y2="594.3746">
	<stop  offset="0" style="stop-color:#FFFFFF"/>
	<stop  offset="1" style="stop-color:#000000"/>
</linearGradient>
<path class="st97" d="M1340.9,538.7c-0.3,0-0.5-0.2-0.5-0.5c0-0.3,0.2-0.5,0.5-0.5l79.6-7.3l61-9c0.3,0,0.5,0.1,0.6,0.4
	c0,0.3-0.1,0.5-0.4,0.6l-61,9L1340.9,538.7C1340.9,538.7,1340.9,538.7,1340.9,538.7z"/>
<linearGradient id="SVGID_99_" gradientUnits="userSpaceOnUse" x1="1516.5255" y1="60.9284" x2="1516.5255" y2="594.3746">
	<stop  offset="0" style="stop-color:#FFFFFF"/>
	<stop  offset="1" style="stop-color:#000000"/>
</linearGradient>
<path class="st98" d="M1505.5,520.4c-0.2,0-0.5-0.2-0.5-0.4c0-0.3,0.2-0.5,0.4-0.6l22-3c0.3,0,0.5,0.2,0.6,0.4
	c0,0.3-0.2,0.5-0.4,0.6L1505.5,520.4C1505.6,520.4,1505.5,520.4,1505.5,520.4z"/>
<linearGradient id="SVGID_100_" gradientUnits="userSpaceOnUse" x1="1659.0256" y1="60.9284" x2="1659.0256" y2="594.3746">
	<stop  offset="0" style="stop-color:#FFFFFF"/>
	<stop  offset="1" style="stop-color:#000000"/>
</linearGradient>
<path class="st99" d="M1549.5,518.4c-0.2,0-0.4-0.1-0.4-0.3c-0.1-0.2,0-0.5,0.2-0.7l22-11c0.1,0,0.1,0,0.2-0.1l42-3l70-1l43,1
	l41.9-4c0.3,0,0.5,0.2,0.5,0.5c0,0.3-0.2,0.5-0.5,0.5l-42,4l-43.1-1l-70,1l-41.9,3l-21.9,11C1549.7,518.4,1549.6,518.4,1549.5,518.4
	z"/>
<linearGradient id="SVGID_101_" gradientUnits="userSpaceOnUse" x1="1435.5255" y1="60.9284" x2="1435.5255" y2="594.3746">
	<stop  offset="0" style="stop-color:#FFFFFF"/>
	<stop  offset="1" style="stop-color:#000000"/>
</linearGradient>
<path class="st100" d="M1380.5,537.4c-0.3,0-0.5-0.2-0.5-0.5c0-0.3,0.2-0.5,0.5-0.5l110-9c0.3,0,0.5,0.2,0.5,0.5
	c0,0.3-0.2,0.5-0.5,0.5L1380.5,537.4C1380.6,537.4,1380.5,537.4,1380.5,537.4z"/>
<linearGradient id="SVGID_102_" gradientUnits="userSpaceOnUse" x1="1588.0256" y1="60.9284" x2="1588.0256" y2="594.3746">
	<stop  offset="0" style="stop-color:#FFFFFF"/>
	<stop  offset="1" style="stop-color:#000000"/>
</linearGradient>
<path class="st101" d="M1555.5,525.4c-0.2,0-0.4-0.1-0.5-0.3c-0.1-0.3,0.1-0.5,0.3-0.6l21-7c0,0,0.1,0,0.1,0l44-5
	c0.3,0,0.5,0.2,0.6,0.4c0,0.3-0.2,0.5-0.4,0.6l-43.9,5l-21,7C1555.6,525.4,1555.6,525.4,1555.5,525.4z"/>
<linearGradient id="SVGID_103_" gradientUnits="userSpaceOnUse" x1="1711.0256" y1="60.9284" x2="1711.0256" y2="594.3746">
	<stop  offset="0" style="stop-color:#FFFFFF"/>
	<stop  offset="1" style="stop-color:#000000"/>
</linearGradient>
<path class="st102" d="M1731.6,515.4l-33.1-3l-28.9,3l-24.1-2c-0.3,0-0.5-0.3-0.5-0.5c0-0.3,0.3-0.5,0.5-0.5l24,2l28.9-3l33.1,3
	l44.9-4c0.2,0,0.5,0.2,0.5,0.5c0,0.3-0.2,0.5-0.5,0.5L1731.6,515.4z"/>
<linearGradient id="SVGID_104_" gradientUnits="userSpaceOnUse" x1="1569.1842" y1="60.9284" x2="1569.1842" y2="594.3746">
	<stop  offset="0" style="stop-color:#FFFFFF"/>
	<stop  offset="1" style="stop-color:#000000"/>
</linearGradient>
<path class="st103" d="M1556.8,532.8c-0.2,0-0.4-0.1-0.5-0.4c-0.1-0.3,0.1-0.5,0.3-0.6l24.7-7.4c0.3-0.1,0.5,0.1,0.6,0.3
	c0.1,0.3-0.1,0.5-0.3,0.6l-24.7,7.4C1556.9,532.8,1556.9,532.8,1556.8,532.8z"/>
<linearGradient id="SVGID_105_" gradientUnits="userSpaceOnUse" x1="1694.0256" y1="60.9284" x2="1694.0256" y2="594.3746">
	<stop  offset="0" style="stop-color:#FFFFFF"/>
	<stop  offset="1" style="stop-color:#000000"/>
</linearGradient>
<path class="st104" d="M1599.5,524.4c-0.3,0-0.5-0.2-0.5-0.5s0.2-0.5,0.5-0.5c1,0,28.7-1,29-1l55-1l49,1l56-4c0.2,0,0.5,0.2,0.5,0.5
	c0,0.3-0.2,0.5-0.5,0.5l-56,4l-49-1l-55,1C1627.4,523.4,1600.5,524.4,1599.5,524.4z"/>
<linearGradient id="SVGID_106_" gradientUnits="userSpaceOnUse" x1="419.9966" y1="60.9284" x2="419.9966" y2="594.3746">
	<stop  offset="0" style="stop-color:#FFFFFF"/>
	<stop  offset="1" style="stop-color:#000000"/>
</linearGradient>
<path class="st105" d="M340.5,329c-0.1,0-0.2,0-0.3-0.1c-0.2-0.2-0.2-0.5-0.1-0.7l35.2-43.9c0.2-0.2,0.5-0.2,0.7-0.1l7.3,5.8
	l24.8-25.3c0.1-0.1,0.3-0.2,0.4-0.1l32.1,4.8c0.1,0,0.2,0,0.2,0.1l19,15l40.1,42c0.2,0.2,0.2,0.5,0,0.7c-0.2,0.2-0.5,0.2-0.7,0
	l-40-42l-18.8-14.9l-31.7-4.7l-24.9,25.4c-0.2,0.2-0.5,0.2-0.7,0l-7.2-5.8l-34.9,43.5C340.8,328.9,340.6,329,340.5,329z"/>
<linearGradient id="SVGID_107_" gradientUnits="userSpaceOnUse" x1="361.4737" y1="60.9284" x2="361.4737" y2="594.3746">
	<stop  offset="0" style="stop-color:#FFFFFF"/>
	<stop  offset="1" style="stop-color:#000000"/>
</linearGradient>
<path class="st106" d="M297.8,348.6c-0.1,0-0.3-0.1-0.4-0.2c-0.2-0.2-0.2-0.5,0.1-0.7l47.7-40.2l22-30.9l17-19
	c0.1-0.1,0.1-0.1,0.2-0.1l21.9-8.5c0.2-0.1,0.4,0,0.5,0.1l18.8,17.7c0.2,0.2,0.2,0.5,0,0.7c-0.2,0.2-0.5,0.2-0.7,0L406.3,250
	l-21.4,8.3l-16.9,18.9l-22,31c0,0-0.1,0.1-0.1,0.1l-47.7,40.2C298,348.6,297.9,348.6,297.8,348.6z"/>
<linearGradient id="SVGID_108_" gradientUnits="userSpaceOnUse" x1="270.2411" y1="60.9284" x2="270.2411" y2="594.3746">
	<stop  offset="0" style="stop-color:#FFFFFF"/>
	<stop  offset="1" style="stop-color:#000000"/>
</linearGradient>
<path class="st107" d="M259.5,365.6c-0.3,0-0.5-0.2-0.5-0.5c0-0.3,0.2-0.5,0.5-0.5c0.5-0.1,2.3-2.2,3.7-4c0.1-0.1,0.2-0.2,0.3-0.2
	l17.5-4.6c0.3-0.1,0.5,0.1,0.6,0.4c0.1,0.3-0.1,0.5-0.4,0.6l-17.3,4.5C262.6,363,260.5,365.6,259.5,365.6z"/>
<linearGradient id="SVGID_109_" gradientUnits="userSpaceOnUse" x1="388.7696" y1="60.9284" x2="388.7696" y2="594.3746">
	<stop  offset="0" style="stop-color:#FFFFFF"/>
	<stop  offset="1" style="stop-color:#000000"/>
</linearGradient>
<path class="st108" d="M268.7,360c-0.1,0-0.3-0.1-0.4-0.2c-0.2-0.2-0.1-0.5,0.1-0.7l20.8-16.5l40-53.9c0.1-0.1,0.1-0.1,0.2-0.2
	l38.8-14.9l20.9-33.9c0.1-0.1,0.2-0.2,0.3-0.2l18-3c0.1,0,0.3,0,0.4,0.1l19,16l21.8,11.9h36.9c0.1,0,0.2,0,0.3,0.1l21,19
	c0.1,0.1,0.1,0.2,0.2,0.3l2.3,13.8c0,0.3-0.1,0.5-0.4,0.6c-0.3,0-0.5-0.1-0.6-0.4l-2.3-13.6l-20.7-18.8h-36.8c-0.1,0-0.2,0-0.2-0.1
	l-22-12c0,0-0.1,0-0.1-0.1l-18.8-15.9l-17.5,2.9L369,274.1c-0.1,0.1-0.1,0.2-0.2,0.2l-38.9,14.9l-39.9,53.9c0,0-0.1,0.1-0.1,0.1
	L269,359.8C268.9,359.9,268.8,360,268.7,360z"/>
<linearGradient id="SVGID_110_" gradientUnits="userSpaceOnUse" x1="338.7409" y1="60.9284" x2="338.7409" y2="594.3746">
	<stop  offset="0" style="stop-color:#FFFFFF"/>
	<stop  offset="1" style="stop-color:#000000"/>
</linearGradient>
<path class="st109" d="M253.5,367.4c-0.1,0-0.3-0.1-0.4-0.2c-0.2-0.2-0.1-0.5,0.1-0.7l20.9-16.9l19-29.9l22.6-30.9
	c0-0.1,0.1-0.1,0.2-0.1l17.9-10.1l41.8-51.1c0.1-0.1,0.1-0.1,0.2-0.1l40.2-17.5c0.1-0.1,0.3-0.1,0.4,0c0.1,0.1,0.2,0.1,0.3,0.3
	l7.8,19.3c0.1,0.3,0,0.5-0.3,0.7c-0.3,0.1-0.5,0-0.7-0.3l-7.7-18.9L376.3,228l-41.7,51.1c0,0-0.1,0.1-0.1,0.1l-17.9,10.1l-22.5,30.8
	l-19,30c0,0-0.1,0.1-0.1,0.1l-21,17C253.7,367.3,253.6,367.4,253.5,367.4z"/>
<linearGradient id="SVGID_111_" gradientUnits="userSpaceOnUse" x1="556.235" y1="60.9284" x2="556.235" y2="594.3746">
	<stop  offset="0" style="stop-color:#FFFFFF"/>
	<stop  offset="1" style="stop-color:#000000"/>
</linearGradient>
<path class="st110" d="M610.8,272.7c-0.1,0-0.2,0-0.2-0.1l-88-46.2L502,244c-0.2,0.2-0.5,0.2-0.7-0.1c-0.2-0.2-0.2-0.5,0.1-0.7
	l20.9-17.8c0.2-0.1,0.4-0.2,0.6-0.1l88.3,46.4c0.2,0.1,0.3,0.4,0.2,0.7C611.2,272.6,611,272.7,610.8,272.7z"/>
<linearGradient id="SVGID_112_" gradientUnits="userSpaceOnUse" x1="665.5112" y1="60.9284" x2="665.5112" y2="594.3746">
	<stop  offset="0" style="stop-color:#FFFFFF"/>
	<stop  offset="1" style="stop-color:#000000"/>
</linearGradient>
<path class="st111" d="M708.5,288.4c-0.1,0-0.2,0-0.2-0.1l-15.9-8.9h-19.9c-0.1,0-0.2,0-0.3-0.1l-16.9-10l-19.8-4l-12.9,6.1
	c-0.2,0.1-0.5,0-0.7-0.2c-0.1-0.2,0-0.5,0.2-0.7l13-6.1c0.1,0,0.2-0.1,0.3,0l20,4c0.1,0,0.1,0,0.2,0.1l16.9,9.9h19.9
	c0.1,0,0.2,0,0.2,0.1l16,9c0.2,0.1,0.3,0.4,0.2,0.7C708.9,288.3,708.7,288.4,708.5,288.4z"/>
<linearGradient id="SVGID_113_" gradientUnits="userSpaceOnUse" x1="757.1963" y1="60.9284" x2="757.1963" y2="594.3746">
	<stop  offset="0" style="stop-color:#FFFFFF"/>
	<stop  offset="1" style="stop-color:#000000"/>
</linearGradient>
<path class="st112" d="M724.8,266.5c-0.1,0-0.2,0-0.3-0.1c-0.2-0.1-0.3-0.4-0.2-0.7l13.7-23.1c0.1-0.1,0.2-0.2,0.3-0.2l17.8-5
	l17.9-22.9c0,0,0.1-0.1,0.1-0.1l15-11c0.2-0.2,0.5-0.1,0.7,0.1c0.2,0.2,0.1,0.5-0.1,0.7l-15,10.9l-18,22.9c-0.1,0.1-0.2,0.1-0.3,0.2
	l-17.8,4.9l-13.6,22.9C725.2,266.4,725,266.5,724.8,266.5z"/>
<linearGradient id="SVGID_114_" gradientUnits="userSpaceOnUse" x1="723.842" y1="60.9284" x2="723.842" y2="594.3746">
	<stop  offset="0" style="stop-color:#FFFFFF"/>
	<stop  offset="1" style="stop-color:#000000"/>
</linearGradient>
<path class="st113" d="M717.1,268.7c-0.1,0-0.2,0-0.3-0.1c-0.2-0.1-0.3-0.5-0.2-0.7l6.4-10.3c0.1-0.1,0.2-0.2,0.3-0.2l7-1.6
	c0.3-0.1,0.5,0.1,0.6,0.4c0.1,0.3-0.1,0.5-0.4,0.6l-6.8,1.6l-6.3,10.1C717.5,268.6,717.3,268.7,717.1,268.7z"/>
<linearGradient id="SVGID_115_" gradientUnits="userSpaceOnUse" x1="1115.0447" y1="60.9284" x2="1115.0447" y2="594.3746">
	<stop  offset="0" style="stop-color:#FFFFFF"/>
	<stop  offset="1" style="stop-color:#000000"/>
</linearGradient>
<path class="st114" d="M1160.5,253.4C1160.5,253.4,1160.5,253.4,1160.5,253.4l-34-3c-0.1,0-0.2,0-0.3-0.1l-18.9-15l-32.6-11.9
	l-4.7,5.6c-0.2,0.2-0.5,0.2-0.7,0.1c-0.2-0.2-0.2-0.5-0.1-0.7l5-5.9c0.1-0.2,0.4-0.2,0.6-0.1l33,12c0,0,0.1,0,0.1,0.1l18.9,14.9
	l33.9,3c0.3,0,0.5,0.3,0.5,0.5C1161,253.2,1160.8,253.4,1160.5,253.4z"/>
<linearGradient id="SVGID_116_" gradientUnits="userSpaceOnUse" x1="1116.6113" y1="60.9284" x2="1116.6113" y2="594.3746">
	<stop  offset="0" style="stop-color:#FFFFFF"/>
	<stop  offset="1" style="stop-color:#000000"/>
</linearGradient>
<path class="st115" d="M1158.5,255.8c0,0-0.1,0-0.1,0l-11.7-3.2l-19.1,2.8c-0.1,0-0.3,0-0.4-0.1c-13.8-9.5-15.9-11.6-16.2-12.2
	c-0.9-0.8-10.3-3.5-18.7-5.7l-13.8-1l-3.7,1.2c-0.3,0.1-0.5-0.1-0.6-0.3c-0.1-0.3,0.1-0.5,0.3-0.6l3.8-1.3c0.1,0,0.1,0,0.2,0l14,1
	c18.1,4.8,19.4,5.9,19.5,6.4c0.7,1.1,9.9,7.6,15.6,11.6l19-2.8c0.1,0,0.1,0,0.2,0l11.8,3.2c0.3,0.1,0.4,0.3,0.4,0.6
	C1159,255.7,1158.8,255.8,1158.5,255.8z M1112,242.7L1112,242.7z"/>
<linearGradient id="SVGID_117_" gradientUnits="userSpaceOnUse" x1="1256.0226" y1="60.9284" x2="1256.0226" y2="594.3746">
	<stop  offset="0" style="stop-color:#FFFFFF"/>
	<stop  offset="1" style="stop-color:#000000"/>
</linearGradient>
<path class="st116" d="M1399.5,354.7c-0.1,0-0.3-0.1-0.4-0.2l-44.9-54.2l-15.8-7.9l-16.9-3l-21.9,0c0,0-0.1,0-0.1,0l-16.7-3.9
	l-17.8,21.8c-0.1,0.1-0.2,0.2-0.4,0.2h-19c-0.1,0-0.1,0-0.2,0l-12-4c-0.1,0-0.1-0.1-0.2-0.1l-24.9-20.9l-30.8-2l-24-4l-18.9-1
	c-0.1,0-0.1,0-0.2,0c-8.2-3.9-20.8-9.8-21.8-10c-0.3,0-0.5-0.2-0.5-0.5c0-0.3,0.2-0.5,0.5-0.5c1,0,17.1,7.6,22.1,10l18.9,1l24.1,4
	l31,2c0.1,0,0.2,0,0.3,0.1l24.9,20.9l11.8,3.9h18.7l17.9-21.8c0.1-0.1,0.3-0.2,0.5-0.2l16.9,4h21.9l17.1,3c0,0,0.1,0,0.1,0l16,8
	c0.1,0,0.1,0.1,0.2,0.1l45,54.3c0.2,0.2,0.1,0.5-0.1,0.7C1399.8,354.6,1399.6,354.7,1399.5,354.7z"/>
<linearGradient id="SVGID_118_" gradientUnits="userSpaceOnUse" x1="1164.6254" y1="60.9284" x2="1164.6254" y2="594.3746">
	<stop  offset="0" style="stop-color:#FFFFFF"/>
	<stop  offset="1" style="stop-color:#000000"/>
</linearGradient>
<path class="st117" d="M1203.7,282c-0.1,0-0.2,0-0.3-0.1l-15.1-10.6c-7.1-2-18.5-5.1-20.4-5.1c0,0,0,0-0.1,0c0,0-0.1,0.1-0.1,0.1
	c-0.3,0.2-1,0.6-16.3-9l-17.7,3l-7.9,4c-0.2,0.1-0.5,0-0.7-0.2c-0.1-0.2,0-0.5,0.2-0.7l8-4c0,0,0.1,0,0.1,0l18-3
	c0.1,0,0.2,0,0.3,0.1c6.6,4.1,14,8.5,15.5,9c0.8-0.5,8,1.2,21.4,5c0.1,0,0.1,0,0.1,0.1l15.2,10.7c0.2,0.2,0.3,0.5,0.1,0.7
	C1204,282,1203.9,282,1203.7,282z M1168,265.9c0,0,0,0.1,0,0.1C1168,266,1168,265.9,1168,265.9z"/>
<linearGradient id="SVGID_119_" gradientUnits="userSpaceOnUse" x1="1129.7008" y1="60.9284" x2="1129.7008" y2="594.3746">
	<stop  offset="0" style="stop-color:#FFFFFF"/>
	<stop  offset="1" style="stop-color:#000000"/>
</linearGradient>
<path class="st118" d="M1094.2,356.4c-0.2,0-0.4-0.1-0.5-0.3c-0.1-0.2,0-0.5,0.2-0.7l35.3-17c0.1-0.1,0.2-0.1,0.4,0l35.7,10
	c0.3,0.1,0.4,0.4,0.3,0.6c-0.1,0.3-0.3,0.4-0.6,0.3l-35.5-9.9l-35.2,16.9C1094.3,356.4,1094.3,356.4,1094.2,356.4z"/>
<linearGradient id="SVGID_120_" gradientUnits="userSpaceOnUse" x1="1206.2102" y1="60.9284" x2="1206.2102" y2="594.3746">
	<stop  offset="0" style="stop-color:#FFFFFF"/>
	<stop  offset="1" style="stop-color:#000000"/>
</linearGradient>
<path class="st119" d="M1189.9,354.6c-0.2,0-0.4-0.1-0.5-0.3c-0.1-0.3,0-0.5,0.3-0.6l19.6-7.2c0.1,0,0.3,0,0.4,0l13,7
	c0.2,0.1,0.3,0.4,0.2,0.7c-0.1,0.2-0.4,0.3-0.7,0.2l-12.8-6.9l-19.4,7.1C1190,354.6,1190,354.6,1189.9,354.6z"/>
<linearGradient id="SVGID_121_" gradientUnits="userSpaceOnUse" x1="1324.8014" y1="60.9284" x2="1324.8014" y2="594.3746">
	<stop  offset="0" style="stop-color:#FFFFFF"/>
	<stop  offset="1" style="stop-color:#000000"/>
</linearGradient>
<path class="st120" d="M1328.5,395.4c-0.1,0-0.1,0-0.2,0c-8.3-3.1-20.9-7.9-21.8-8c-1,0-10.9-7.3-16.9-11.8l-16.1,17.7
	c-0.2,0.2-0.5,0.2-0.7,0c-0.2-0.2-0.2-0.5,0-0.7l16.4-18c0.2-0.2,0.5-0.2,0.7-0.1c5.9,4.5,15.7,11.6,16.8,11.9h0
	c0.9,0,16.7,6,21.9,7.9c5.6-3.4,18-10.9,19.1-10.9c0.8,0,21.2-2.2,28.9-3c0.3,0,0.5,0.2,0.6,0.4c0,0.3-0.2,0.5-0.4,0.6
	c-1.1,0.1-28,3-29.1,3c-1,0.2-12,6.8-18.7,10.9C1328.7,395.4,1328.6,395.4,1328.5,395.4z"/>
<linearGradient id="SVGID_122_" gradientUnits="userSpaceOnUse" x1="1183.7596" y1="60.9284" x2="1183.7596" y2="594.3746">
	<stop  offset="0" style="stop-color:#FFFFFF"/>
	<stop  offset="1" style="stop-color:#000000"/>
</linearGradient>
<path class="st121" d="M1212,276.3c-0.1,0-0.3-0.1-0.4-0.2l-26.3-33.7l-18.5,3.9l-10.9,13.3c-0.2,0.2-0.5,0.2-0.7,0.1
	c-0.2-0.2-0.2-0.5-0.1-0.7l11-13.5c0.1-0.1,0.2-0.1,0.3-0.2l19-4c0.2,0,0.4,0,0.5,0.2l26.5,33.9c0.2,0.2,0.1,0.5-0.1,0.7
	C1212.2,276.3,1212.1,276.3,1212,276.3z"/>
<linearGradient id="SVGID_123_" gradientUnits="userSpaceOnUse" x1="1219.4069" y1="60.9284" x2="1219.4069" y2="594.3746">
	<stop  offset="0" style="stop-color:#FFFFFF"/>
	<stop  offset="1" style="stop-color:#000000"/>
</linearGradient>
<path class="st122" d="M1269.5,289.5c-0.1,0-0.1,0-0.2,0l-8.9-4l-18.9-1c0,0-0.1,0-0.1,0l-19.9-7l-16.9-2c-0.1,0-0.2-0.1-0.3-0.2
	l-17.8-21.7l-16.9,6.3c-0.3,0.1-0.5,0-0.6-0.3s0-0.5,0.3-0.6l17.2-6.4c0.2-0.1,0.4,0,0.6,0.2l17.9,21.8l16.8,2c0,0,0.1,0,0.1,0
	l19.9,7l18.9,1c0.1,0,0.1,0,0.2,0l9,4.1c0.3,0.1,0.4,0.4,0.2,0.7C1269.9,289.4,1269.7,289.5,1269.5,289.5z"/>
<linearGradient id="SVGID_124_" gradientUnits="userSpaceOnUse" x1="1231.3798" y1="60.9284" x2="1231.3798" y2="594.3746">
	<stop  offset="0" style="stop-color:#FFFFFF"/>
	<stop  offset="1" style="stop-color:#000000"/>
</linearGradient>
<path class="st123" d="M1267.3,274.5c-0.1,0-0.2,0-0.2-0.1l-16.5-9l-14.8,8.9c-0.1,0.1-0.2,0.1-0.4,0.1l-19-4c-0.1,0-0.1,0-0.2-0.1
	l-21-15.2c-0.2-0.2-0.3-0.5-0.1-0.7c0.2-0.2,0.5-0.3,0.7-0.1l20.9,15.2l18.7,3.9l14.8-8.9c0.2-0.1,0.3-0.1,0.5,0l16.7,9.1
	c0.2,0.1,0.3,0.4,0.2,0.7C1267.6,274.4,1267.4,274.5,1267.3,274.5z"/>
<linearGradient id="SVGID_125_" gradientUnits="userSpaceOnUse" x1="1273.6492" y1="60.9284" x2="1273.6492" y2="594.3746">
	<stop  offset="0" style="stop-color:#FFFFFF"/>
	<stop  offset="1" style="stop-color:#000000"/>
</linearGradient>
<path class="st124" d="M1239.6,283.5c-0.2,0-0.4-0.1-0.5-0.3c-0.1-0.3,0.1-0.5,0.3-0.6l36.9-12.1c0.1,0,0.2,0,0.3,0l23.9,8l7-1.4
	c0.3-0.1,0.5,0.1,0.6,0.4c0.1,0.3-0.1,0.5-0.4,0.6l-7.1,1.5c-0.1,0-0.2,0-0.3,0l-23.8-7.9l-36.7,12.1
	C1239.7,283.5,1239.7,283.5,1239.6,283.5z"/>
<linearGradient id="SVGID_126_" gradientUnits="userSpaceOnUse" x1="1318.7971" y1="60.9284" x2="1318.7971" y2="594.3746">
	<stop  offset="0" style="stop-color:#FFFFFF"/>
	<stop  offset="1" style="stop-color:#000000"/>
</linearGradient>
<path class="st125" d="M1302.5,285.4c-0.1,0-0.2,0-0.3-0.1c-0.2-0.2-0.3-0.5-0.1-0.7l11-16c0.1-0.2,0.4-0.3,0.6-0.2l19,7
	c0.1,0,0.2,0.1,0.3,0.3l2.5,5.7c0.1,0.3,0,0.5-0.3,0.7c-0.3,0.1-0.5,0-0.7-0.3l-2.4-5.5l-18.4-6.8l-10.8,15.7
	C1302.9,285.3,1302.7,285.4,1302.5,285.4z"/>
<linearGradient id="SVGID_127_" gradientUnits="userSpaceOnUse" x1="1347.007" y1="60.9284" x2="1347.007" y2="594.3746">
	<stop  offset="0" style="stop-color:#FFFFFF"/>
	<stop  offset="1" style="stop-color:#000000"/>
</linearGradient>
<path class="st126" d="M1379.5,330.5c-0.2,0-0.3-0.1-0.4-0.2l-23.9-34l-16.8-14.8l-23.8,4.9c-0.3,0.1-0.5-0.1-0.6-0.4
	c-0.1-0.3,0.1-0.5,0.4-0.6l24-5c0.2,0,0.3,0,0.4,0.1l17,15c0,0,0.1,0.1,0.1,0.1l24,34.1c0.2,0.2,0.1,0.5-0.1,0.7
	C1379.7,330.4,1379.6,330.5,1379.5,330.5z"/>
<linearGradient id="SVGID_128_" gradientUnits="userSpaceOnUse" x1="1314.7531" y1="60.9284" x2="1314.7531" y2="594.3746">
	<stop  offset="0" style="stop-color:#FFFFFF"/>
	<stop  offset="1" style="stop-color:#000000"/>
</linearGradient>
<path class="st127" d="M1364.5,348.4c-0.1,0-0.3,0-0.4-0.1l-17.9-17.9l-17.8-1c0,0-0.1,0-0.1,0l-20.9-7l-18.9,1
	c-0.1,0-0.2,0-0.3-0.1l-16.7-11.8l-6.3,4.1c-0.2,0.1-0.5,0.1-0.7-0.1c-0.1-0.2-0.1-0.5,0.1-0.7l6.5-4.2c0.2-0.1,0.4-0.1,0.6,0
	l16.9,11.9l18.8-1c0.1,0,0.1,0,0.2,0l20.9,7l17.9,1c0.1,0,0.2,0.1,0.3,0.1l18,18c0.2,0.2,0.2,0.5,0,0.7
	C1364.8,348.3,1364.7,348.4,1364.5,348.4z"/>
<linearGradient id="SVGID_129_" gradientUnits="userSpaceOnUse" x1="1316.259" y1="60.9284" x2="1316.259" y2="594.3746">
	<stop  offset="0" style="stop-color:#FFFFFF"/>
	<stop  offset="1" style="stop-color:#000000"/>
</linearGradient>
<path class="st128" d="M1428.7,363c-0.1,0-0.1,0-0.2,0l-22.1-8.5l-19.9,1c-8.7,1.3-18.5,3.1-19.6,3.7c0,0.1-0.1,0.2-0.2,0.2
	c-0.3,0.2-1.1,0.7-36.3-14.9l-19.8,5c-0.1,0-0.2,0-0.3,0l-38-14c-0.1,0-0.1-0.1-0.2-0.1l-16.9-14.9l-19.8-2l-18.8,4.9l-12.7,10.8
	c-0.2,0.2-0.5,0.2-0.7-0.1c-0.2-0.2-0.2-0.5,0.1-0.7l12.8-10.8c0.1,0,0.1-0.1,0.2-0.1l19-5c0.1,0,0.1,0,0.2,0l20,2
	c0.1,0,0.2,0.1,0.3,0.1l16.9,14.9l37.8,13.9l19.9-5c0.1,0,0.2,0,0.3,0c13.3,5.9,33.4,14.6,35.6,15c0.9-0.6,4.7-1.7,20.1-4l20-1
	c0.1,0,0.1,0,0.2,0l22.2,8.6c0.3,0.1,0.4,0.4,0.3,0.6C1429.1,362.8,1428.9,363,1428.7,363z M1367,358.9L1367,358.9L1367,358.9z
	 M1367,358.9C1367,358.9,1367,358.9,1367,358.9C1367,358.9,1367,358.9,1367,358.9z M1367,358.9C1367,358.9,1367,358.9,1367,358.9
	C1367,358.9,1367,358.9,1367,358.9z M1367,358.9C1367,358.9,1367,358.9,1367,358.9C1367,358.9,1367,358.9,1367,358.9z"/>
<linearGradient id="SVGID_130_" gradientUnits="userSpaceOnUse" x1="1453.9124" y1="60.9284" x2="1453.9124" y2="594.3746">
	<stop  offset="0" style="stop-color:#FFFFFF"/>
	<stop  offset="1" style="stop-color:#000000"/>
</linearGradient>
<path class="st129" d="M1515.3,381.6c-0.1,0-0.3-0.1-0.4-0.2l-29.6-36l-19.7,1l-52.9,24c-0.1,0-0.2,0-0.3,0l-20-2
	c-0.3,0-0.5-0.3-0.4-0.5c0-0.3,0.3-0.5,0.5-0.4l19.9,2l52.9-23.9c0.1,0,0.1,0,0.2,0l20-1c0.2,0,0.3,0.1,0.4,0.2l29.8,36.2
	c0.2,0.2,0.1,0.5-0.1,0.7C1515.5,381.5,1515.4,381.6,1515.3,381.6z"/>
<linearGradient id="SVGID_131_" gradientUnits="userSpaceOnUse" x1="1475.5255" y1="60.9284" x2="1475.5255" y2="594.3746">
	<stop  offset="0" style="stop-color:#FFFFFF"/>
	<stop  offset="1" style="stop-color:#000000"/>
</linearGradient>
<path style="fill:url(#SVGID_131_);" d="M1574.5,397.4c0,0-0.1,0-0.1,0l-46-12l-54.9-16h-39.8l-18.9,10.9c-0.1,0-0.2,0.1-0.2,0.1
	c-1.5,0-36,1-38,1c-0.3,0-0.5-0.2-0.5-0.5s0.2-0.5,0.5-0.5c1.9,0,35.5-0.9,37.9-1l18.9-10.9c0.1,0,0.2-0.1,0.3-0.1h40
	c0,0,0.1,0,0.1,0l55,16l46,12c0.3,0.1,0.4,0.3,0.4,0.6C1575,397.2,1574.7,397.4,1574.5,397.4z"/>
<linearGradient id="SVGID_132_" gradientUnits="userSpaceOnUse" x1="1452.5256" y1="60.9284" x2="1452.5256" y2="594.3746">
	<stop  offset="0" style="stop-color:#FFFFFF"/>
	<stop  offset="1" style="stop-color:#000000"/>
</linearGradient>
<path class="st131" d="M1458.5,395.4C1458.5,395.4,1458.5,395.4,1458.5,395.4l-35.1-7c-0.3-0.1-0.4-0.3-0.4-0.6
	c0.1-0.3,0.3-0.4,0.6-0.4l34.9,7l22.9-1c0.3,0,0.5,0.2,0.5,0.5c0,0.3-0.2,0.5-0.5,0.5L1458.5,395.4
	C1458.5,395.4,1458.5,395.4,1458.5,395.4z"/>
<linearGradient id="SVGID_133_" gradientUnits="userSpaceOnUse" x1="1483.5254" y1="60.9284" x2="1483.5254" y2="594.3746">
	<stop  offset="0" style="stop-color:#FFFFFF"/>
	<stop  offset="1" style="stop-color:#000000"/>
</linearGradient>
<path class="st132" d="M1507.5,387.4c0,0-0.1,0-0.1,0c-3.8-1.2-10.2-3-10.9-3c-1,0-36.6,1-37,1c-0.2,0-0.5-0.2-0.5-0.5
	c0-0.3,0.2-0.5,0.5-0.5c1.5,0,36-1,37-1c1,0,9.5,2.5,11.1,3c0.3,0.1,0.4,0.4,0.3,0.6C1507.9,387.2,1507.7,387.4,1507.5,387.4z"/>
<linearGradient id="SVGID_134_" gradientUnits="userSpaceOnUse" x1="1442.0255" y1="60.9284" x2="1442.0255" y2="594.3746">
	<stop  offset="0" style="stop-color:#FFFFFF"/>
	<stop  offset="1" style="stop-color:#000000"/>
</linearGradient>
<path class="st133" d="M1460.5,401.4C1460.5,401.4,1460.5,401.4,1460.5,401.4l-14-1l-23-3c-0.3,0-0.5-0.3-0.4-0.6
	c0-0.3,0.3-0.5,0.6-0.4l23,3l14,1c0.3,0,0.5,0.3,0.5,0.5C1461,401.2,1460.8,401.4,1460.5,401.4z"/>
<linearGradient id="SVGID_135_" gradientUnits="userSpaceOnUse" x1="1504.6471" y1="60.9284" x2="1504.6471" y2="594.3746">
	<stop  offset="0" style="stop-color:#FFFFFF"/>
	<stop  offset="1" style="stop-color:#000000"/>
</linearGradient>
<path class="st134" d="M1490.4,398.5c-0.2,0-0.4-0.1-0.4-0.3c-0.1-0.2,0-0.5,0.2-0.7l19-10c0,0,0.1,0,0.2-0.1l9.4-1.5
	c0.3,0,0.5,0.1,0.6,0.4c0,0.3-0.1,0.5-0.4,0.6l-9.4,1.5l-18.9,10C1490.6,398.5,1490.5,398.5,1490.4,398.5z"/>
<linearGradient id="SVGID_136_" gradientUnits="userSpaceOnUse" x1="1506.84" y1="60.9284" x2="1506.84" y2="594.3746">
	<stop  offset="0" style="stop-color:#FFFFFF"/>
	<stop  offset="1" style="stop-color:#000000"/>
</linearGradient>
<path class="st135" d="M1494.5,403.4c-0.2,0-0.4-0.1-0.4-0.3c-0.1-0.2,0-0.5,0.2-0.7l24.6-12.4c0.2-0.1,0.5,0,0.7,0.2
	c0.1,0.2,0,0.5-0.2,0.7l-24.6,12.4C1494.7,403.4,1494.6,403.4,1494.5,403.4z"/>
<linearGradient id="SVGID_137_" gradientUnits="userSpaceOnUse" x1="1516.5256" y1="60.9284" x2="1516.5256" y2="594.3746">
	<stop  offset="0" style="stop-color:#FFFFFF"/>
	<stop  offset="1" style="stop-color:#000000"/>
</linearGradient>
<path class="st136" d="M1499.5,407.4c-0.2,0-0.3-0.1-0.4-0.2c-0.1-0.2-0.1-0.5,0.2-0.7l26-16c0,0,0.1,0,0.1-0.1l8-2
	c0.3-0.1,0.5,0.1,0.6,0.4c0.1,0.3-0.1,0.5-0.4,0.6l-7.9,2l-25.9,16C1499.7,407.4,1499.6,407.4,1499.5,407.4z"/>
<linearGradient id="SVGID_138_" gradientUnits="userSpaceOnUse" x1="1567.5255" y1="60.9284" x2="1567.5255" y2="594.3746">
	<stop  offset="0" style="stop-color:#FFFFFF"/>
	<stop  offset="1" style="stop-color:#000000"/>
</linearGradient>
<path class="st137" d="M1582.5,413.4c-0.1,0-0.2,0-0.2-0.1l-18-9c-2.7-0.8-10.2-2.9-11.8-2.9c-0.3,0-0.5-0.2-0.5-0.5
	s0.2-0.5,0.5-0.5c2,0,11.7,2.9,12.1,3l18.1,9c0.2,0.1,0.3,0.4,0.2,0.7C1582.9,413.3,1582.7,413.4,1582.5,413.4z"/>
<linearGradient id="SVGID_139_" gradientUnits="userSpaceOnUse" x1="1571.0256" y1="60.9284" x2="1571.0256" y2="594.3746">
	<stop  offset="0" style="stop-color:#FFFFFF"/>
	<stop  offset="1" style="stop-color:#000000"/>
</linearGradient>
<path class="st138" d="M1594.5,422.4c0,0-0.1,0-0.1,0l-24-6c0,0-0.1,0-0.1,0l-17.9-9.9h-4.9c-0.3,0-0.5-0.2-0.5-0.5s0.2-0.5,0.5-0.5
	h5c0.1,0,0.2,0,0.2,0.1l17.9,10l23.9,6c0.3,0.1,0.4,0.3,0.4,0.6C1595,422.2,1594.8,422.4,1594.5,422.4z"/>
<linearGradient id="SVGID_140_" gradientUnits="userSpaceOnUse" x1="1660.5197" y1="60.9284" x2="1660.5197" y2="594.3746">
	<stop  offset="0" style="stop-color:#FFFFFF"/>
	<stop  offset="1" style="stop-color:#000000"/>
</linearGradient>
<path class="st139" d="M1716.5,433.4c0,0-0.1,0-0.1,0l-17.9-5l-48.9-3l-27-2c-8-1.4-16.7-2.6-17.7-2.1c-0.2,0.2-0.5,0.2-0.7,0
	c-0.2-0.2-0.2-0.5,0-0.7c1-1,12,0.7,18.4,1.9l27,2l49,3c0,0,0.1,0,0.1,0l18,5c0.3,0.1,0.4,0.3,0.3,0.6
	C1716.9,433.2,1716.7,433.4,1716.5,433.4z"/>
<linearGradient id="SVGID_141_" gradientUnits="userSpaceOnUse" x1="1532.5518" y1="60.9284" x2="1532.5518" y2="594.3746">
	<stop  offset="0" style="stop-color:#FFFFFF"/>
	<stop  offset="1" style="stop-color:#000000"/>
</linearGradient>
<path class="st140" d="M1563.5,381.5c-0.1,0-0.3,0-0.4-0.1l-13.9-14l-18.7-5.9l-13.8,4.9c-0.1,0-0.1,0-0.2,0l-14.9-1.4
	c-0.3,0-0.5-0.3-0.5-0.5c0-0.3,0.3-0.5,0.5-0.5l14.8,1.4l13.9-5c0.1,0,0.2,0,0.3,0l19,6c0.1,0,0.1,0.1,0.2,0.1l14,14.1
	c0.2,0.2,0.2,0.5,0,0.7C1563.7,381.4,1563.6,381.5,1563.5,381.5z"/>
<linearGradient id="SVGID_142_" gradientUnits="userSpaceOnUse" x1="1548.6711" y1="60.9284" x2="1548.6711" y2="594.3746">
	<stop  offset="0" style="stop-color:#FFFFFF"/>
	<stop  offset="1" style="stop-color:#000000"/>
</linearGradient>
<path class="st141" d="M1590.5,393.4c-0.1,0-0.2,0-0.3-0.1l-13.8-9.9l-4.8,1c-0.1,0-0.2,0-0.3,0l-18.9-7l-31.9-2c0,0-0.1,0-0.1,0
	l-13.7-4.1c-0.3-0.1-0.4-0.4-0.3-0.6s0.4-0.4,0.6-0.3l13.7,4.1l31.9,2c0,0,0.1,0,0.1,0l18.9,7l4.9-1c0.1,0,0.3,0,0.4,0.1l14,10
	c0.2,0.2,0.3,0.5,0.1,0.7C1590.8,393.3,1590.7,393.4,1590.5,393.4z"/>
<linearGradient id="SVGID_143_" gradientUnits="userSpaceOnUse" x1="88.6803" y1="60.9284" x2="88.6803" y2="594.3746">
	<stop  offset="0" style="stop-color:#FFFFFF"/>
	<stop  offset="1" style="stop-color:#000000"/>
</linearGradient>
<path class="st142" d="M42.8,515.9c-0.1,0-0.3-0.1-0.4-0.2c-0.2-0.2-0.2-0.5,0-0.7c9.1-8.5,14.1-12.8,14.9-12.8c0,0,0,0,0,0
	l39.9-5.5l37.3-1.7c0.3,0,0.5,0.2,0.5,0.5s-0.2,0.5-0.5,0.5l-37.3,1.7l-40,5.5c-0.9,0.3-9.2,7.9-14.3,12.6
	C43,515.9,42.9,515.9,42.8,515.9z"/>
<linearGradient id="SVGID_144_" gradientUnits="userSpaceOnUse" x1="99.024" y1="60.9284" x2="99.024" y2="594.3746">
	<stop  offset="0" style="stop-color:#FFFFFF"/>
	<stop  offset="1" style="stop-color:#000000"/>
</linearGradient>
<path class="st143" d="M67.7,505.6c-0.2,0-0.4-0.2-0.5-0.4c0-0.3,0.1-0.5,0.4-0.6l20.9-3.8l41.8-1.9c0.3,0,0.5,0.2,0.5,0.5
	c0,0.3-0.2,0.5-0.5,0.5l-41.7,1.9L67.7,505.6C67.8,505.6,67.8,505.6,67.7,505.6z"/>
<linearGradient id="SVGID_145_" gradientUnits="userSpaceOnUse" x1="59.5229" y1="60.9284" x2="59.5229" y2="594.3746">
	<stop  offset="0" style="stop-color:#FFFFFF"/>
	<stop  offset="1" style="stop-color:#000000"/>
</linearGradient>
<path class="st144" d="M22.2,532.5c-0.2,0-0.4-0.1-0.5-0.4c-0.1-0.3,0.1-0.5,0.3-0.6l20.9-6.1l22.3-7.9c0,0,0.1,0,0.1,0l31.4-2.7
	c0.3,0,0.5,0.2,0.5,0.5c0,0.3-0.2,0.5-0.5,0.5l-31.3,2.7l-22.2,7.9l-20.9,6.1C22.3,532.5,22.3,532.5,22.2,532.5z"/>
<linearGradient id="SVGID_146_" gradientUnits="userSpaceOnUse" x1="50.5274" y1="60.9284" x2="50.5274" y2="594.3746">
	<stop  offset="0" style="stop-color:#FFFFFF"/>
	<stop  offset="1" style="stop-color:#000000"/>
</linearGradient>
<path class="st145" d="M-3.1,535.4c-0.2,0-0.4-0.1-0.5-0.3c-0.1-0.3,0-0.5,0.2-0.7l35.9-16.2l26.7-7.8c0,0,0.1,0,0.1,0l44.8-2.7
	c0.3,0,0.5,0.2,0.5,0.5c0,0.3-0.2,0.5-0.5,0.5l-44.7,2.7l-26.6,7.8l-35.8,16.2C-3,535.4-3,535.4-3.1,535.4z"/>
</svg>
